<?xml version="1.0" encoding="UTF-8" standalone="no"?>
<!DOCTYPE svg PUBLIC "-//W3C//DTD SVG 1.1//EN" "http://www.w3.org/Graphics/SVG/1.1/DTD/svg11.dtd">
<svg width="100%" height="100%" viewBox="0 0 3111 3102" version="1.1" xmlns="http://www.w3.org/2000/svg" xmlns:xlink="http://www.w3.org/1999/xlink" xml:space="preserve" xmlns:serif="http://www.serif.com/" style="fill-rule:evenodd;clip-rule:evenodd;stroke-linejoin:round;stroke-miterlimit:2;">
    <g transform="matrix(1,0,0,1,-10243,-9457)">
        <g transform="matrix(1,0,0,1,3059,680)">
            <g transform="matrix(1,0,0,1,-719,4770)">
                <path d="M9458.5,4007C10317,4007 11014,4701.98 11014,5558C11014,6414.02 10317,7109 9458.5,7109C8600,7109 7903,6414.02 7903,5558C7903,4701.98 8600,4007 9458.5,4007ZM9126.73,5570.09C9330.92,5470.42 9507.36,5445.66 9658.67,5470.52C10093.6,5541.99 10301,5995.23 10301,5995.23C10350,6099.26 10474.2,6143.96 10578.2,6094.99C10682.3,6046.01 10727,5921.79 10678,5817.76C10677.9,5817.63 10364.3,5164.23 9726.24,5059.37C9478.57,5018.67 9178.92,5055.9 8829.44,5256.47L8626.75,5042.65C8569.77,4982.53 8482.58,4961.88 8404.69,4990.06C8326.8,5018.24 8273,5089.88 8267.66,5172.54L8219.59,5916.61C8215.88,5974.07 8236.11,6030.51 8275.5,6072.52C8314.89,6114.53 8369.9,6138.37 8427.49,6138.37L9180.87,6138.37C9264.12,6138.37 9339.38,6088.81 9372.27,6012.33C9405.15,5935.85 9389.34,5847.13 9332.07,5786.71L9126.73,5570.09Z" style="fill:white;"/>
            </g>
        </g>
    </g>
</svg>
