<?xml version="1.0" encoding="UTF-8" standalone="no"?>
<!DOCTYPE svg PUBLIC "-//W3C//DTD SVG 1.1//EN" "http://www.w3.org/Graphics/SVG/1.1/DTD/svg11.dtd">
<svg width="100%" height="100%" viewBox="0 0 473 459" version="1.1" xmlns="http://www.w3.org/2000/svg" xmlns:xlink="http://www.w3.org/1999/xlink" xml:space="preserve" xmlns:serif="http://www.serif.com/" style="fill-rule:evenodd;clip-rule:evenodd;">
    <g transform="matrix(1,0,0,1,-213,-153)">
        <g>
            <g transform="matrix(1.33333,0,0,1.33333,175.801,122.254)">
                <path d="M130.38,130.94C133.087,130.44 135.787,129.93 138.48,129.41C140.51,129.01 142.87,129 145.08,128.57C150.19,127.57 155.29,127.19 160.45,126.54C169.29,125.44 177.98,125.08 186.76,124.46C199.45,123.57 212.39,123.74 225.24,124.6C240.54,125.62 256.39,126.97 270.5,129.27C292.507,132.857 314.183,138.177 335.53,145.23C336.01,145.39 336.25,145.217 336.25,144.71L336.26,141.76C336.26,141.207 335.993,140.84 335.46,140.66C309.147,131.96 282.4,125.983 255.22,122.73C251.613,122.303 248.007,121.873 244.4,121.44C240.447,120.967 236.833,120.63 233.56,120.43C212.967,119.197 192.377,119.297 171.79,120.73C155.19,121.89 137.43,125.01 124.54,127.39C118.68,128.48 113.13,129.96 107.41,131.15C101.297,132.417 90.747,135.44 75.76,140.22C75.18,140.407 74.703,140.59 74.33,140.77C73.975,140.948 73.75,141.313 73.75,141.71L73.74,144.81C73.74,145.257 73.953,145.41 74.38,145.27C92.627,139.223 111.293,134.447 130.38,130.94" style="fill:none;fill-rule:nonzero;stroke:rgb(87,125,37);stroke-width:2.67px;"/>
            </g>
            <g transform="matrix(1.33333,0,0,1.33333,175.801,122.254)">
                <path d="M79.06,228.87C161.51,202.64 248.43,202.65 331.01,228.92C331.337,229.02 331.543,228.903 331.63,228.57C334.61,216.69 336.13,205.333 336.19,194.5C336.277,178.74 336.29,163.117 336.23,147.63C336.23,147.143 335.997,146.823 335.53,146.67C301.05,135.297 265.87,128.533 229.99,126.38C176.717,123.18 124.81,129.977 74.27,146.77C73.96,146.87 73.749,147.158 73.75,147.48C73.75,161.907 73.763,176.413 73.79,191C73.817,203.747 75.303,216.217 78.25,228.41C78.357,228.85 78.627,229.003 79.06,228.87" style="fill:none;fill-rule:nonzero;stroke:rgb(87,125,37);stroke-width:2.67px;"/>
            </g>
            <g transform="matrix(1.33333,0,0,1.33333,175.801,122.254)">
                <path d="M94.61,230.7C96.71,230.467 98.667,229.823 100.48,228.77" style="fill:none;fill-rule:nonzero;stroke:rgb(142,121,57);stroke-width:2.67px;"/>
            </g>
            <g transform="matrix(1.33333,0,0,1.33333,175.801,122.254)">
                <path d="M100.48,228.77C101.62,228.79 102.907,228.623 104.34,228.27C127.53,222.53 150.94,218.76 174.75,216.85C190.517,215.583 209.067,215.483 230.4,216.55C236.76,216.87 243.25,217.73 249.73,218.43C269.917,220.603 289.663,224.133 308.97,229.02" style="fill:none;fill-rule:nonzero;stroke:rgb(87,125,37);stroke-width:2.67px;"/>
            </g>
            <g transform="matrix(1.33333,0,0,1.33333,175.801,122.254)">
                <path d="M308.97,229.02L315.28,230.7" style="fill:none;fill-rule:nonzero;stroke:rgb(142,121,57);stroke-width:2.67px;"/>
            </g>
            <g transform="matrix(1.33333,0,0,1.33333,175.801,122.254)">
                <path d="M315.28,230.7L329.56,234.96C329.933,235.073 330.163,234.94 330.25,234.56L331.03,231.01C331.098,230.704 330.923,230.394 330.63,230.3C248.98,204.15 161.16,204.05 79.36,230.32C79.02,230.433 78.89,230.663 78.97,231.01L79.76,234.55C79.847,234.923 80.073,235.057 80.44,234.95L94.61,230.7" style="fill:none;fill-rule:nonzero;stroke:rgb(87,125,37);stroke-width:2.67px;"/>
            </g>
            <g transform="matrix(1.33333,0,0,1.33333,175.801,122.254)">
                <path d="M315.28,230.7C317.393,227.873 315.29,227.313 308.97,229.02" style="fill:none;fill-rule:nonzero;stroke:rgb(55,114,94);stroke-width:2.67px;"/>
            </g>
            <g transform="matrix(1.33333,0,0,1.33333,175.801,122.254)">
                <path d="M100.48,228.77C98.333,228.123 96.283,227.983 94.33,228.35C93.99,228.417 93.847,228.62 93.9,228.96C93.98,229.487 94.217,230.067 94.61,230.7" style="fill:none;fill-rule:nonzero;stroke:rgb(55,114,94);stroke-width:2.67px;"/>
            </g>
            <g transform="matrix(1.33333,0,0,1.33333,175.801,122.254)">
                <path d="M112.83,228.94L101.8,232.16" style="fill:none;fill-rule:nonzero;stroke:rgb(142,121,57);stroke-width:2.67px;"/>
            </g>
            <g transform="matrix(1.33333,0,0,1.33333,175.801,122.254)">
                <path d="M98.9,234.25C98.867,235.703 99.23,237.083 99.99,238.39" style="fill:none;fill-rule:nonzero;stroke:rgb(142,121,57);stroke-width:2.67px;"/>
            </g>
            <g transform="matrix(1.33333,0,0,1.33333,175.801,122.254)">
                <path d="M100.75,240.1C100.81,241.767 101.333,243.287 102.32,244.66" style="fill:none;fill-rule:nonzero;stroke:rgb(142,121,57);stroke-width:2.67px;"/>
            </g>
            <g transform="matrix(1.33333,0,0,1.33333,175.801,122.254)">
                <path d="M102.97,246.32C103.27,247.807 103.867,249.17 104.76,250.41" style="fill:none;fill-rule:nonzero;stroke:rgb(142,121,57);stroke-width:2.67px;"/>
            </g>
            <g transform="matrix(1.33333,0,0,1.33333,175.801,122.254)">
                <path d="M105.9,252.18C106,253.787 106.513,255.257 107.44,256.59" style="fill:none;fill-rule:nonzero;stroke:rgb(142,121,57);stroke-width:2.67px;"/>
            </g>
            <g transform="matrix(1.33333,0,0,1.33333,175.801,122.254)">
                <path d="M108.56,258.38C108.967,260.007 109.657,261.38 110.63,262.5" style="fill:none;fill-rule:nonzero;stroke:rgb(142,121,57);stroke-width:2.67px;"/>
            </g>
            <g transform="matrix(1.33333,0,0,1.33333,175.801,122.254)">
                <path d="M111.96,264.47C112.387,265.937 113.017,267.24 113.85,268.38" style="fill:none;fill-rule:nonzero;stroke:rgb(142,121,57);stroke-width:2.67px;"/>
            </g>
            <g transform="matrix(1.33333,0,0,1.33333,175.801,122.254)">
                <path d="M115.75,270.58C115.91,271.94 116.62,273.253 117.88,274.52" style="fill:none;fill-rule:nonzero;stroke:rgb(142,121,57);stroke-width:2.67px;"/>
            </g>
            <g transform="matrix(1.33333,0,0,1.33333,175.801,122.254)">
                <path d="M119.74,276.73C120.107,278.39 120.947,279.607 122.26,280.38" style="fill:none;fill-rule:nonzero;stroke:rgb(142,121,57);stroke-width:2.67px;"/>
            </g>
            <g transform="matrix(1.33333,0,0,1.33333,175.801,122.254)">
                <path d="M124.64,282.74C124.513,283.993 125.137,285.163 126.51,286.25" style="fill:none;fill-rule:nonzero;stroke:rgb(142,121,57);stroke-width:2.67px;"/>
            </g>
            <g transform="matrix(1.33333,0,0,1.33333,175.801,122.254)">
                <path d="M129.4,289C129.687,290.28 130.477,291.373 131.77,292.28" style="fill:none;fill-rule:nonzero;stroke:rgb(142,121,57);stroke-width:2.67px;"/>
            </g>
            <g transform="matrix(1.33333,0,0,1.33333,175.801,122.254)">
                <path d="M135.1,294.79C135.173,296.203 135.943,297.32 137.41,298.14" style="fill:none;fill-rule:nonzero;stroke:rgb(142,121,57);stroke-width:2.67px;"/>
            </g>
            <g transform="matrix(1.33333,0,0,1.33333,175.801,122.254)">
                <path d="M140.96,300.89C141.3,301.99 142.113,302.94 143.4,303.74" style="fill:none;fill-rule:nonzero;stroke:rgb(142,121,57);stroke-width:2.67px;"/>
            </g>
            <g transform="matrix(1.33333,0,0,1.33333,175.801,122.254)">
                <path d="M147.33,306.86C148.137,307.987 149.017,308.873 149.97,309.52" style="fill:none;fill-rule:nonzero;stroke:rgb(142,121,57);stroke-width:2.67px;"/>
            </g>
            <g transform="matrix(1.33333,0,0,1.33333,175.801,122.254)">
                <path d="M252.91,314.85C254.043,314.123 254.867,313.353 255.38,312.54" style="fill:none;fill-rule:nonzero;stroke:rgb(142,121,57);stroke-width:2.67px;"/>
            </g>
            <g transform="matrix(1.33333,0,0,1.33333,175.801,122.254)">
                <path d="M259.83,309.56L262.95,306.77" style="fill:none;fill-rule:nonzero;stroke:rgb(142,121,57);stroke-width:2.67px;"/>
            </g>
            <g transform="matrix(1.33333,0,0,1.33333,175.801,122.254)">
                <path d="M266.69,303.75C267.963,302.61 268.587,301.67 268.56,300.93" style="fill:none;fill-rule:nonzero;stroke:rgb(142,121,57);stroke-width:2.67px;"/>
            </g>
            <g transform="matrix(1.33333,0,0,1.33333,175.801,122.254)">
                <path d="M272.68,298.06C274.12,297.113 274.85,296.023 274.87,294.79" style="fill:none;fill-rule:nonzero;stroke:rgb(142,121,57);stroke-width:2.67px;"/>
            </g>
            <g transform="matrix(1.33333,0,0,1.33333,175.801,122.254)">
                <path d="M278.28,292.28C279.193,291.48 279.87,290.373 280.31,288.96" style="fill:none;fill-rule:nonzero;stroke:rgb(142,121,57);stroke-width:2.67px;"/>
            </g>
            <g transform="matrix(1.33333,0,0,1.33333,175.801,122.254)">
                <path d="M283.48,286.27C284.6,285.217 285.27,284.003 285.49,282.63" style="fill:none;fill-rule:nonzero;stroke:rgb(142,121,57);stroke-width:2.67px;"/>
            </g>
            <g transform="matrix(1.33333,0,0,1.33333,175.801,122.254)">
                <path d="M287.78,280.36C289.147,279.493 289.843,278.287 289.87,276.74" style="fill:none;fill-rule:nonzero;stroke:rgb(142,121,57);stroke-width:2.67px;"/>
            </g>
            <g transform="matrix(1.33333,0,0,1.33333,175.801,122.254)">
                <path d="M292.17,274.46C293.303,273.233 294.01,271.94 294.29,270.58" style="fill:none;fill-rule:nonzero;stroke:rgb(142,121,57);stroke-width:2.67px;"/>
            </g>
            <g transform="matrix(1.33333,0,0,1.33333,175.801,122.254)">
                <path d="M296.24,268.21C297.173,267.097 297.72,265.843 297.88,264.45" style="fill:none;fill-rule:nonzero;stroke:rgb(142,121,57);stroke-width:2.67px;"/>
            </g>
            <g transform="matrix(1.33333,0,0,1.33333,175.801,122.254)">
                <path d="M299.34,262.48C300.32,261.42 301.033,260.04 301.48,258.34" style="fill:none;fill-rule:nonzero;stroke:rgb(142,121,57);stroke-width:2.67px;"/>
            </g>
            <g transform="matrix(1.33333,0,0,1.33333,175.801,122.254)">
                <path d="M302.62,256.52C303.533,255.093 304.033,253.647 304.12,252.18" style="fill:none;fill-rule:nonzero;stroke:rgb(142,121,57);stroke-width:2.67px;"/>
            </g>
            <g transform="matrix(1.33333,0,0,1.33333,175.801,122.254)">
                <path d="M305.26,250.39L307.25,246.25" style="fill:none;fill-rule:nonzero;stroke:rgb(142,121,57);stroke-width:2.67px;"/>
            </g>
            <g transform="matrix(1.33333,0,0,1.33333,175.801,122.254)">
                <path d="M307.72,244.54C308.647,243.04 309.227,241.547 309.46,240.06" style="fill:none;fill-rule:nonzero;stroke:rgb(142,121,57);stroke-width:2.67px;"/>
            </g>
            <g transform="matrix(1.33333,0,0,1.33333,175.801,122.254)">
                <path d="M310.05,238.39C310.703,237.183 311.123,235.807 311.31,234.26" style="fill:none;fill-rule:nonzero;stroke:rgb(142,121,57);stroke-width:2.67px;"/>
            </g>
            <g transform="matrix(1.33333,0,0,1.33333,175.801,122.254)">
                <path d="M307.78,232.27C306.13,230.58 303.58,230.57 301.86,230.06C300.167,229.567 298.477,229.163 296.79,228.85" style="fill:none;fill-rule:nonzero;stroke:rgb(142,121,57);stroke-width:2.67px;"/>
            </g>
            <g transform="matrix(1.33333,0,0,1.33333,175.801,122.254)">
                <path d="M202.28,172.5L202.26,181.87C202.26,181.932 202.259,181.993 202.256,182.054C202.152,184.526 200.038,186.475 197.571,186.372C197.507,186.369 197.444,186.365 197.38,186.36L196.23,186.27C194.275,186.109 192.753,184.452 192.76,182.49L192.78,156.21C192.78,154.329 194.173,152.717 196.03,152.45L197.54,152.24C197.63,152.227 197.72,152.217 197.81,152.211C200.064,152.041 202.059,153.761 202.229,156.02C202.235,156.11 202.239,156.2 202.24,156.29L202.28,161.76C202.285,161.882 202.388,161.98 202.51,161.98L206.57,162.01C206.79,162.01 206.913,161.9 206.94,161.68C207.51,156.14 206.43,149 199.5,148.19C194.127,147.557 190.62,149.117 188.98,152.87C188.28,154.477 187.937,157.77 187.95,162.75C187.97,168.83 187.99,174.91 188.01,180.99C188.01,184.03 188.9,187.66 191.25,189.24C195.69,192.21 202.88,191.45 205.53,186.32C207.82,181.86 207.11,174.49 206.94,168.15C206.933,167.81 206.76,167.647 206.42,167.66L198.26,167.95C198.08,167.957 197.99,168.053 197.99,168.24L198.02,171.9C198.02,172.027 198.083,172.09 198.21,172.09L201.75,172C202.103,171.987 202.28,172.153 202.28,172.5" style="fill:none;fill-rule:nonzero;stroke:rgb(122,181,159);stroke-width:2.67px;"/>
            </g>
            <g transform="matrix(1.33333,0,0,1.33333,175.801,122.254)">
                <path d="M225.99,170.03C231.38,167.63 230.7,158.33 229.25,153.92C228.32,151.09 226.08,149.17 223.25,148.76C220.977,148.433 217.13,148.28 211.71,148.3C211.403,148.3 211.25,148.453 211.25,148.76L211.25,189.95C211.25,190.09 211.32,190.167 211.46,190.18L215.93,190.53C216.083,190.543 216.16,190.47 216.16,190.31L216.15,173.23C216.15,172.87 216.33,172.673 216.69,172.64C219.6,172.35 225.54,173.41 225.35,177.5C225.157,181.78 225.247,186.08 225.62,190.4C225.66,190.807 225.883,191.017 226.29,191.03L230.44,191.15C230.443,191.15 230.446,191.15 230.449,191.15C230.658,191.15 230.829,190.979 230.829,190.77C230.829,190.729 230.823,190.689 230.81,190.65C228.41,183.58 233.18,175.42 225.94,170.6C225.607,170.38 225.623,170.19 225.99,170.03" style="fill:none;fill-rule:nonzero;stroke:rgb(122,181,159);stroke-width:2.67px;"/>
            </g>
            <g transform="matrix(1.33333,0,0,1.33333,175.801,122.254)">
                <path d="M244.02,188.06C240.987,187.72 239.47,186.023 239.47,182.97L239.46,149.92C239.46,149.713 239.36,149.6 239.16,149.58L234.82,149.06C234.814,149.059 234.809,149.059 234.803,149.058C234.683,149.051 234.578,149.149 234.57,149.275C234.57,149.28 234.57,149.285 234.57,149.29C234.51,158.957 234.51,168.673 234.57,178.44C234.61,185.33 235.41,190.84 242.54,192.55C250.91,194.56 253.39,188.7 253.45,181.43C253.543,171.257 253.553,161.137 253.48,151.07C253.473,150.91 253.393,150.827 253.24,150.82L249.07,150.57C248.95,150.563 248.89,150.62 248.89,150.74L248.84,184.95C248.84,186.738 247.368,188.21 245.58,188.21C245.46,188.21 245.34,188.203 245.22,188.19L244.02,188.06" style="fill:none;fill-rule:nonzero;stroke:rgb(122,181,159);stroke-width:2.67px;"/>
            </g>
            <g transform="matrix(1.33333,0,0,1.33333,175.801,122.254)">
                <path d="M169.97,173.79C172.26,173.71 175.16,173.25 176.97,174.65C178.177,175.59 178.75,176.88 178.69,178.52C178.55,182.62 178.71,186.697 179.17,190.75C179.21,191.097 179.403,191.26 179.75,191.24L184,190.95C184.34,190.93 184.453,190.757 184.34,190.43C182.49,185.29 184.31,179.83 182.63,174.38C182.07,172.58 180.92,171.86 179.35,171.07C178.943,170.863 178.933,170.637 179.32,170.39C184.12,167.43 183.59,161.54 183.18,156.49C182.4,146.87 172.57,149.21 165.2,150.28C164.907,150.32 164.76,150.487 164.76,150.78L164.76,191.97C164.76,192.11 164.83,192.173 164.97,192.16L169.26,191.77C169.427,191.75 169.51,191.657 169.51,191.49L169.5,174.28C169.5,173.967 169.657,173.803 169.97,173.79" style="fill:none;fill-rule:nonzero;stroke:rgb(122,181,159);stroke-width:2.67px;"/>
            </g>
            <g transform="matrix(1.33333,0,0,1.33333,175.801,122.254)">
                <path d="M148.34,189.9C148.327,189.902 148.313,189.903 148.3,189.903C148.138,189.903 148.004,189.772 148,189.61L148,175.56C148.003,175.416 148.108,175.294 148.25,175.27L157.79,173.7C157.935,173.675 158.042,173.547 158.04,173.4L158.03,169.92C158.025,169.759 157.891,169.628 157.73,169.628C157.72,169.628 157.71,169.629 157.7,169.63L148.33,170.62C148.32,170.621 148.31,170.622 148.3,170.622C148.139,170.622 148.005,170.491 148,170.33L148,156.77C147.999,156.616 148.117,156.485 148.27,156.47L160.27,155.07C160.423,155.055 160.541,154.924 160.54,154.77L160.5,150.81C160.496,150.648 160.362,150.517 160.2,150.517C160.187,150.517 160.173,150.518 160.16,150.52L143.52,152.79C143.371,152.81 143.259,152.939 143.26,153.09L143.26,194.65C143.26,194.651 143.26,194.652 143.26,194.653C143.26,194.817 143.395,194.953 143.56,194.953C143.573,194.953 143.587,194.952 143.6,194.95L160.27,192.77C160.416,192.75 160.526,192.627 160.53,192.48L160.53,188.58C160.526,188.418 160.392,188.287 160.23,188.287C160.217,188.287 160.203,188.288 160.19,188.29L148.34,189.9" style="fill:none;fill-rule:nonzero;stroke:rgb(122,181,159);stroke-width:2.67px;"/>
            </g>
            <g transform="matrix(1.33333,0,0,1.33333,175.801,122.254)">
                <path d="M263.44,177.94C267.05,178.81 272.03,179.57 274.55,176.56C277.16,173.45 276.83,165.99 276.23,162.26C274.58,152.06 266.35,152.78 258.4,151.75C258.033,151.703 257.85,151.867 257.85,152.24L257.85,193.23C257.851,193.457 258.012,193.651 258.23,193.69L262.26,194.41C262.283,194.414 262.307,194.416 262.33,194.416C262.559,194.416 262.748,194.229 262.75,194L262.75,178.49C262.75,178.017 262.98,177.833 263.44,177.94" style="fill:none;fill-rule:nonzero;stroke:rgb(122,181,159);stroke-width:2.67px;"/>
            </g>
            <g transform="matrix(1.33333,0,0,1.33333,175.801,122.254)">
                <path d="M127.37,160.03C127.39,160.026 127.41,160.024 127.43,160.024C127.593,160.024 127.728,160.157 127.73,160.32L127.73,197.31C127.732,197.473 127.867,197.606 128.03,197.606C128.05,197.606 128.07,197.604 128.09,197.6L132.31,196.82C132.451,196.791 132.553,196.664 132.55,196.52L132.55,159.47C132.551,159.332 132.646,159.212 132.78,159.18L139.9,157.57C140.034,157.538 140.129,157.418 140.13,157.28L140.13,153.64C140.13,153.639 140.13,153.637 140.13,153.636C140.13,153.471 139.995,153.336 139.83,153.336C139.813,153.336 139.797,153.337 139.78,153.34L120.5,156.82C120.358,156.844 120.253,156.966 120.25,157.11L120.25,161.15C120.252,161.313 120.387,161.446 120.55,161.446C120.57,161.446 120.59,161.444 120.61,161.44L127.37,160.03" style="fill:none;fill-rule:nonzero;stroke:rgb(122,181,159);stroke-width:2.67px;"/>
            </g>
            <g transform="matrix(1.33333,0,0,1.33333,175.801,122.254)">
                <path d="M292.57,157.66C285.86,154.44 279.82,156.53 279.78,164.25C279.733,171.997 279.737,179.75 279.79,187.51C279.83,193.943 282.7,197.913 288.4,199.42C294,200.9 298.47,198.5 298.65,192.37C298.83,186.41 298.807,178.24 298.58,167.86C298.473,162.927 296.47,159.527 292.57,157.66" style="fill:none;fill-rule:nonzero;stroke:rgb(122,181,159);stroke-width:2.67px;"/>
            </g>
            <g transform="matrix(1.33333,0,0,1.33333,175.801,122.254)">
                <path d="M102.64,171.72L112.15,200.43C112.243,200.703 112.43,200.813 112.71,200.76L116.58,200.05C116.933,199.983 117.11,199.77 117.11,199.41L117.13,158.24C117.13,157.8 116.913,157.623 116.48,157.71L113.75,158.24C113.384,158.312 113.119,158.632 113.12,159L113.12,185.78C113.12,187.827 112.793,187.88 112.14,185.94L103.93,161.44C103.803,161.073 103.55,160.933 103.17,161.02L98.21,162.18C97.897,162.253 97.74,162.453 97.74,162.78L97.74,204.05C97.74,204.25 97.84,204.333 98.04,204.3L101.92,203.64C102.113,203.607 102.21,203.493 102.21,203.3C102.197,193.647 102.2,183.967 102.22,174.26C102.22,173.26 102.287,172.417 102.42,171.73C102.473,171.443 102.547,171.44 102.64,171.72" style="fill:none;fill-rule:nonzero;stroke:rgb(122,181,159);stroke-width:2.67px;"/>
            </g>
            <g transform="matrix(1.33333,0,0,1.33333,175.801,122.254)">
                <path d="M307.15,169.03C307.43,166.22 310.2,165.68 312.33,166.5C315.49,167.72 316.56,171.68 316.06,174.76C316.027,174.967 316.113,175.09 316.32,175.13L320.35,175.89C320.363,175.893 320.377,175.894 320.39,175.894C320.505,175.894 320.6,175.799 320.6,175.684C320.6,175.683 320.6,175.681 320.6,175.68C320.73,168.26 317.33,162.35 309.5,161.4C303.13,160.63 301.75,167.61 302.57,172.5C304.06,181.27 313.22,185.35 315.69,193.24C316.37,195.42 316.33,200.69 312.81,200.54C307.22,200.3 306.46,195.48 306.67,190.85C306.682,190.496 306.434,190.184 306.09,190.12L302.75,189.49C302.41,189.43 302.223,189.573 302.19,189.92C301.57,197.66 305.26,204.34 313.49,205.32C316.483,205.68 318.483,204.733 319.49,202.48C323.75,192.94 316.17,185.33 310.31,178.74C307.837,175.953 306.783,172.717 307.15,169.03" style="fill:none;fill-rule:nonzero;stroke:rgb(122,181,159);stroke-width:2.67px;"/>
            </g>
            <g transform="matrix(1.33333,0,0,1.33333,175.801,122.254)">
                <path d="M88.75,207C88.75,207 88.75,207.001 88.75,207.001C88.75,207.165 88.885,207.301 89.05,207.301C89.088,207.301 89.125,207.294 89.16,207.28L93.32,205.71C93.435,205.665 93.51,205.553 93.51,205.43L93.51,164.09C93.51,164.09 93.51,164.089 93.51,164.089C93.51,163.925 93.375,163.789 93.21,163.789C93.183,163.789 93.156,163.793 93.13,163.8L88.97,164.95C88.84,164.986 88.75,165.105 88.75,165.24L88.75,207" style="fill:none;fill-rule:nonzero;stroke:rgb(122,181,159);stroke-width:2.67px;"/>
            </g>
            <g transform="matrix(1.33333,0,0,1.33333,175.801,122.254)">
                <path d="M216.04,153.41L216.12,167.73C216.12,168.059 216.391,168.33 216.72,168.33L220.39,168.31C223.127,168.299 225.37,166.105 225.36,163.45L225.32,157.61C225.32,157.608 225.32,157.606 225.32,157.604C225.306,154.951 223.045,152.778 220.31,152.79L216.64,152.81C216.311,152.81 216.04,153.081 216.04,153.41" style="fill:none;fill-rule:nonzero;stroke:rgb(122,181,159);stroke-width:2.67px;"/>
            </g>
            <g transform="matrix(1.33333,0,0,1.33333,175.801,122.254)">
                <path d="M178.04,166.3C179.1,162.91 179.42,156.85 176.94,154.36C176.667,154.08 176.337,153.943 175.95,153.95L170.1,154.05C169.707,154.057 169.51,154.257 169.51,154.65L169.5,168.99C169.5,169.337 169.673,169.51 170.02,169.51C172.31,169.48 177.17,169.06 178.04,166.3" style="fill:none;fill-rule:nonzero;stroke:rgb(122,181,159);stroke-width:2.67px;"/>
            </g>
            <g transform="matrix(1.33333,0,0,1.33333,175.801,122.254)">
                <path d="M271.08,160.19C269.75,157.26 266.65,157.21 263.16,156.91C262.887,156.883 262.75,157.01 262.75,157.29L262.75,171.97C262.75,173.117 263.323,173.723 264.47,173.79L269.07,174.05C270.177,174.114 271.162,173.316 271.33,172.22C272.217,166.52 272.133,162.51 271.08,160.19" style="fill:none;fill-rule:nonzero;stroke:rgb(122,181,159);stroke-width:2.67px;"/>
            </g>
            <g transform="matrix(1.33333,0,0,1.33333,175.801,122.254)">
                <path d="M288.76,194.84L290.18,195.25C290.314,195.289 290.45,195.319 290.588,195.339C292.189,195.569 293.698,194.437 293.93,192.83C293.95,192.691 293.96,192.55 293.96,192.41L294.02,166.85C294.027,164.109 292.065,161.725 289.37,161.2L288.14,160.96C287.936,160.92 287.728,160.9 287.52,160.9C285.763,160.9 284.315,162.343 284.31,164.1L284.26,188.83C284.253,191.963 285.753,193.967 288.76,194.84" style="fill:none;fill-rule:nonzero;stroke:rgb(122,181,159);stroke-width:2.67px;"/>
            </g>
            <g transform="matrix(1.33333,0,0,1.33333,175.801,122.254)">
                <path d="M117.78,323.27L121.78,326.71C122.06,326.95 122.083,327.213 121.85,327.5C114.077,336.867 105.943,345.84 97.45,354.42C94.597,357.3 91.157,358.787 87.13,358.88C72.377,359.213 57.753,357.267 43.26,353.04C39.13,351.83 35.56,350.51 32.76,347.19C28.087,341.643 26.853,335.09 29.06,327.53C30.63,322.14 34.02,313.27 39.57,311.09C42.75,309.84 46.49,311.76 49.42,313.2C64.38,320.54 78.283,328.013 91.13,335.62C96.47,338.78 99.49,336.68 103.4,332.44C109.493,325.833 115.723,319.37 122.09,313.05C122.33,312.817 122.337,312.577 122.11,312.33C119.223,309.25 116.407,306.103 113.66,302.89C89.18,274.243 75.113,241.353 71.46,204.22C70.973,199.28 70.733,192.62 70.74,184.24C70.773,152.927 70.817,121.653 70.87,90.42C70.87,89.878 70.671,89.352 70.31,88.94L28.83,41.82C27.476,40.279 27.616,37.902 29.14,36.53L34.31,31.9C35.072,31.219 36.059,30.843 37.081,30.843C38.274,30.843 39.411,31.356 40.2,32.25L70.45,66.62C70.75,66.953 70.9,66.897 70.9,66.45L70.83,46.02C70.83,45.733 70.963,45.537 71.23,45.43C72.097,45.097 72.943,44.79 73.77,44.51C104.05,34.437 135.07,27.907 166.83,24.92C169.683,24.653 173.297,24.427 177.67,24.24C181.283,24.087 184.897,23.903 188.51,23.69C196.68,23.2 204.47,22.87 212.83,23.18C225.043,23.64 234.27,24.143 240.51,24.69C273.297,27.55 305.93,34.373 338.41,45.16C338.917,45.333 339.17,45.687 339.17,46.22L339.14,66.31C339.14,66.823 339.307,66.887 339.64,66.5L369.8,32.25C369.805,32.244 369.81,32.239 369.815,32.233C371.33,30.533 373.971,30.378 375.667,31.888C375.671,31.892 375.676,31.896 375.68,31.9L380.86,36.54C382.385,37.903 382.525,40.28 381.17,41.82L339.45,89.2C339.244,89.438 339.13,89.744 339.13,90.06C339.19,122.187 339.237,154.347 339.27,186.54C339.27,192.387 339.083,197.687 338.71,202.44C337.97,211.72 336.81,217.74 335.28,224.7C327.867,258.54 312.067,287.757 287.88,312.35C287.647,312.583 287.647,312.817 287.88,313.05C294.56,319.63 301.037,326.357 307.31,333.23C313.02,339.49 316.4,336.99 322.59,333.43C336.01,325.71 349.64,318.2 363.74,311.77C373.96,307.12 378.92,320.41 381.01,327.77C383.61,336.93 380.6,348.17 370.81,351.64C365.163,353.64 359.387,355.167 353.48,356.22C348.46,357.11 343.49,358.16 338.46,358.53C331.447,359.043 326.293,359.243 323,359.13C316.44,358.9 312.58,354.7 308.2,350.05C301.24,342.663 294.5,335.093 287.98,327.34C287.847,327.18 287.857,327.033 288.01,326.9L292.51,322.99C292.543,322.963 292.523,322.903 292.45,322.81L292.44,322.81C292.387,322.743 292.337,322.727 292.29,322.76L287.62,325.86C287.287,326.08 287.003,326.03 286.77,325.71L281.6,318.78C281.433,318.553 281.247,318.533 281.04,318.72C270.82,327.8 261.02,334.48 248.1,341.98C233.893,350.227 219.67,358.447 205.43,366.64C205.143,366.807 204.857,366.807 204.57,366.64C190.39,358.493 176.23,350.313 162.09,342.1C149.17,334.6 139.36,327.96 129.18,318.9C129.065,318.798 128.916,318.741 128.762,318.741C128.565,318.741 128.379,318.833 128.26,318.99L123.22,325.7C122.987,326.013 122.707,326.063 122.38,325.85L118,322.98C117.968,322.956 117.93,322.943 117.89,322.943C117.79,322.943 117.708,323.025 117.708,323.125C117.708,323.182 117.735,323.236 117.78,323.27ZM225.25,42.04C225.25,42.04 225.25,42.04 225.25,42.04C225.25,41.798 225.449,41.6 225.69,41.6C225.697,41.6 225.703,41.6 225.71,41.6C258.123,43.313 289.833,48.933 320.84,58.46C321.113,58.547 321.25,58.73 321.25,59.01L321.25,132.98C321.25,133.288 321.454,133.562 321.75,133.65L336.03,138.12C336.343,138.213 336.5,138.097 336.5,137.77L336.5,48.5C336.501,47.734 336.001,47.051 335.27,46.82C325.617,43.747 316.353,41.06 307.48,38.76C240.05,21.26 168.65,21.55 101.25,38.93C100.603,39.097 99.96,39.267 99.32,39.44C91.447,41.58 83.153,44.093 74.44,46.98C73.813,47.193 73.5,47.63 73.5,48.29L73.5,137.77C73.5,138.097 73.657,138.21 73.97,138.11L88.26,133.65C88.552,133.555 88.751,133.283 88.75,132.98L88.75,59.02C88.75,58.733 88.887,58.547 89.16,58.46C120.127,48.953 151.79,43.337 184.15,41.61C184.557,41.59 184.76,41.783 184.76,42.19L184.76,43.5C184.76,43.873 184.573,44.073 184.2,44.1C152.807,45.867 122.06,51.253 91.96,60.26C91.627,60.36 91.46,60.587 91.46,60.94L91.46,132.23C91.46,132.59 91.63,132.72 91.97,132.62C107.183,128.28 122.703,124.867 138.53,122.38C151.95,120.267 160.44,119.087 164,118.84C179.95,117.72 193.46,116.56 211.72,116.84C223.25,117.02 236.99,118.02 246.75,118.97C270.137,121.243 293.89,125.8 318.01,132.64C318.37,132.74 318.55,132.607 318.55,132.24L318.55,60.96C318.55,60.647 318.397,60.447 318.09,60.36C298.43,54.48 281.97,51.22 266.33,48.44C252.91,46.05 239.17,45.19 225.66,43.95C225.38,43.923 225.24,43.77 225.24,43.49L225.25,42.04ZM70.46,73.53C70.519,73.596 70.603,73.633 70.691,73.633C70.861,73.633 71.001,73.493 71.001,73.323C71.001,73.315 71.001,73.308 71,73.3L70.88,71.17C70.876,71.099 70.848,71.032 70.8,70.98L37.11,32.76C37.051,32.694 36.967,32.656 36.878,32.656C36.768,32.656 36.665,32.715 36.61,32.81L35.92,33.98C35.855,34.096 35.871,34.241 35.96,34.34L70.46,73.53ZM373.38,32.8C373.323,32.712 373.225,32.658 373.12,32.658C373.032,32.658 372.949,32.695 372.89,32.76L339.13,71.05C339.078,71.108 339.049,71.182 339.05,71.26L339.03,73.3C339.034,73.467 339.173,73.602 339.34,73.602C339.428,73.602 339.511,73.565 339.57,73.5L374.08,34.31C374.171,34.207 374.183,34.056 374.11,33.94L373.38,32.8ZM130.38,130.94C133.087,130.44 135.787,129.93 138.48,129.41C140.51,129.01 142.87,129 145.08,128.57C150.19,127.57 155.29,127.19 160.45,126.54C169.29,125.44 177.98,125.08 186.76,124.46C199.45,123.57 212.39,123.74 225.24,124.6C240.54,125.62 256.39,126.97 270.5,129.27C292.507,132.857 314.183,138.177 335.53,145.23C336.01,145.39 336.25,145.217 336.25,144.71L336.26,141.76C336.26,141.207 335.993,140.84 335.46,140.66C309.147,131.96 282.4,125.983 255.22,122.73C251.613,122.303 248.007,121.873 244.4,121.44C240.447,120.967 236.833,120.63 233.56,120.43C212.967,119.197 192.377,119.297 171.79,120.73C155.19,121.89 137.43,125.01 124.54,127.39C118.68,128.48 113.13,129.96 107.41,131.15C101.297,132.417 90.747,135.44 75.76,140.22C75.18,140.407 74.703,140.59 74.33,140.77C73.975,140.948 73.75,141.313 73.75,141.71L73.74,144.81C73.74,145.257 73.953,145.41 74.38,145.27C92.627,139.223 111.293,134.447 130.38,130.94ZM79.06,228.87C161.51,202.64 248.43,202.65 331.01,228.92C331.337,229.02 331.543,228.903 331.63,228.57C334.61,216.69 336.13,205.333 336.19,194.5C336.277,178.74 336.29,163.117 336.23,147.63C336.23,147.143 335.997,146.823 335.53,146.67C301.05,135.297 265.87,128.533 229.99,126.38C176.717,123.18 124.81,129.977 74.27,146.77C73.96,146.87 73.749,147.158 73.75,147.48C73.75,161.907 73.763,176.413 73.79,191C73.817,203.747 75.303,216.217 78.25,228.41C78.357,228.85 78.627,229.003 79.06,228.87ZM94.61,230.7C96.71,230.467 98.667,229.823 100.48,228.77C101.62,228.79 102.907,228.623 104.34,228.27C127.53,222.53 150.94,218.76 174.75,216.85C190.517,215.583 209.067,215.483 230.4,216.55C236.76,216.87 243.25,217.73 249.73,218.43C269.917,220.603 289.663,224.133 308.97,229.02L315.28,230.7L329.56,234.96C329.933,235.073 330.163,234.94 330.25,234.56L331.03,231.01C331.098,230.704 330.923,230.394 330.63,230.3C248.98,204.15 161.16,204.05 79.36,230.32C79.02,230.433 78.89,230.663 78.97,231.01L79.76,234.55C79.847,234.923 80.073,235.057 80.44,234.95L94.61,230.7ZM112.83,228.94L101.8,232.16L98.47,232.53C98.401,232.538 98.334,232.556 98.271,232.583C97.913,232.736 97.742,233.152 97.892,233.505C97.919,233.569 97.956,233.627 98,233.68C98.36,234.107 98.66,234.297 98.9,234.25C98.867,235.703 99.23,237.083 99.99,238.39C99.61,238.95 99.863,239.52 100.75,240.1C100.81,241.767 101.333,243.287 102.32,244.66C102.2,245.513 102.417,246.067 102.97,246.32C103.27,247.807 103.867,249.17 104.76,250.41C104.493,251.597 104.873,252.187 105.9,252.18C106,253.787 106.513,255.257 107.44,256.59C107.56,257.297 107.933,257.893 108.56,258.38C108.967,260.007 109.657,261.38 110.63,262.5C110.877,263.687 111.32,264.343 111.96,264.47C112.387,265.937 113.017,267.24 113.85,268.38C114.257,269.513 114.89,270.247 115.75,270.58C115.91,271.94 116.62,273.253 117.88,274.52C118.287,275.833 118.907,276.57 119.74,276.73C120.107,278.39 120.947,279.607 122.26,280.38C122.407,281.787 123.2,282.573 124.64,282.74C124.513,283.993 125.137,285.163 126.51,286.25C127.497,288.097 128.46,289.013 129.4,289C129.687,290.28 130.477,291.373 131.77,292.28C132.783,294.093 133.893,294.93 135.1,294.79C135.173,296.203 135.943,297.32 137.41,298.14C138.317,299.627 139.5,300.543 140.96,300.89C141.3,301.99 142.113,302.94 143.4,303.74C144.313,305.127 145.623,306.167 147.33,306.86C148.137,307.987 149.017,308.873 149.97,309.52L154.99,313.01C155.05,313.303 155.223,313.543 155.51,313.73C159.11,316.1 162.69,318.66 166.35,320.79C178.957,328.117 191.547,335.39 204.12,342.61C204.659,342.925 205.327,342.929 205.87,342.62C218.63,335.293 231.4,327.91 244.18,320.47C245.507,319.697 246.97,318.77 248.57,317.69C250.09,316.65 251.537,315.703 252.91,314.85C254.043,314.123 254.867,313.353 255.38,312.54C256.687,312.147 258.17,311.153 259.83,309.56L262.95,306.77C264.437,306.057 265.683,305.05 266.69,303.75C267.963,302.61 268.587,301.67 268.56,300.93C270.233,300.73 271.607,299.773 272.68,298.06C274.12,297.113 274.85,296.023 274.87,294.79C276.083,294.93 277.22,294.093 278.28,292.28C279.193,291.48 279.87,290.373 280.31,288.96C281.297,289.213 282.353,288.317 283.48,286.27C284.6,285.217 285.27,284.003 285.49,282.63C286.83,282.617 287.593,281.86 287.78,280.36C289.147,279.493 289.843,278.287 289.87,276.74C290.897,276.787 291.663,276.027 292.17,274.46C293.303,273.233 294.01,271.94 294.29,270.58C295.283,270.127 295.933,269.337 296.24,268.21C297.173,267.097 297.72,265.843 297.88,264.45C298.62,264.49 299.107,263.833 299.34,262.48C300.32,261.42 301.033,260.04 301.48,258.34C302.147,257.813 302.527,257.207 302.62,256.52C303.533,255.093 304.033,253.647 304.12,252.18C305.153,252.193 305.533,251.597 305.26,250.39L307.25,246.25C307.757,245.597 307.913,245.027 307.72,244.54C308.647,243.04 309.227,241.547 309.46,240.06C310.193,239.34 310.39,238.783 310.05,238.39C310.703,237.183 311.123,235.807 311.31,234.26C313.263,232.913 312.087,232.25 307.78,232.27C306.13,230.58 303.58,230.57 301.86,230.06C300.167,229.567 298.477,229.163 296.79,228.85C240.683,215.97 184.337,214.92 127.75,225.7C125.157,226.2 120.183,227.28 112.83,228.94ZM204.58,345.92C194.927,340.273 185.243,334.673 175.53,329.12C167.483,324.527 161.773,321.087 158.4,318.8C127.867,298.093 106.883,269.79 95.45,233.89C95.33,233.517 95.087,233.387 94.72,233.5L81.74,237.34C81.102,237.526 80.661,238.115 80.661,238.78C80.661,238.943 80.688,239.105 80.74,239.26C93.613,277.36 115.69,307.49 146.97,329.65C150.85,332.397 156.507,335.913 163.94,340.2C177.48,348.013 191.02,355.837 204.56,363.67C204.847,363.837 205.137,363.837 205.43,363.67C220.477,354.983 235.523,346.293 250.57,337.6C261.837,331.093 272.217,323.39 281.71,314.49C303.623,293.937 319.473,268.733 329.26,238.88C329.298,238.764 329.317,238.643 329.317,238.521C329.317,238.01 328.979,237.557 328.49,237.41L315.29,233.5C314.91,233.387 314.66,233.52 314.54,233.9C303.4,268.947 283.073,296.8 253.56,317.46C249.887,320.033 244.207,323.523 236.52,327.93C226.12,333.89 215.747,339.887 205.4,345.92C205.127,346.073 204.853,346.073 204.58,345.92ZM48.82,352.02C58.56,354.09 70.21,355.51 80.69,356.34C89.13,357.01 91.2,350.2 90.69,343.18C90.51,340.77 88.67,338.98 86.8,337.92C74.953,331.233 63.13,324.507 51.33,317.74C51.23,317.68 51.15,317.7 51.09,317.8L51.08,317.81C51.02,317.91 51.04,317.993 51.14,318.06C58.847,323.16 63.793,326.407 65.98,327.8C70.24,330.5 73.36,335.31 71.28,340.36C67.02,350.74 49.95,350.31 41.52,347.54C35.1,345.44 31.463,341.097 30.61,334.51C30.537,333.97 30.48,333.973 30.44,334.52C29.63,344.79 40.36,350.22 48.82,352.02ZM358.66,317.72C346.62,324.66 334.48,331.42 322.48,338.41C318.68,340.63 319,344.29 319.42,348.37C319.92,353.2 323.81,356.9 328.75,356.49C337.923,355.73 347.05,354.61 356.13,353.13C365.77,351.55 379.64,347.54 379.74,334.37C379.747,334.263 379.693,334.207 379.58,334.2C379.473,334.193 379.413,334.243 379.4,334.35C378.03,347.91 362.23,350.71 351.26,348.7C343.56,347.29 334.36,340.99 339.34,332.6C340.46,330.727 342.827,328.603 346.44,326.23C350.587,323.503 354.73,320.78 358.87,318.06C358.97,317.993 358.987,317.907 358.92,317.8L358.92,317.79C358.853,317.683 358.767,317.66 358.66,317.72ZM316.1,350.06L316.54,341.52C316.544,341.518 316.546,341.514 316.546,341.51C316.546,341.504 316.541,341.499 316.535,341.499C316.533,341.499 316.532,341.499 316.53,341.5L316.48,341.5C316.479,341.5 316.479,341.5 316.478,341.5C316.084,341.48 315.665,343.325 315.55,345.588C315.55,345.589 315.55,345.589 315.55,345.59L315.53,345.91C315.416,348.172 315.646,350.049 316.04,350.07L316.09,350.07C316.095,350.07 316.1,350.065 316.1,350.06ZM93.48,342.29L93.92,348.61C94.02,350.003 94.177,350.01 94.39,348.63C94.73,346.463 94.553,344.327 93.86,342.22C93.54,341.247 93.413,341.27 93.48,342.29Z" style="fill:rgb(174,132,0);fill-rule:nonzero;"/>
            </g>
            <g transform="matrix(1.33333,0,0,1.33333,175.801,122.254)">
                <path d="M210.91,43.83L212.01,51.04C212.012,51.054 212.013,51.069 212.013,51.084C212.013,51.259 211.869,51.404 211.693,51.404C211.643,51.404 211.594,51.392 211.55,51.37L205.15,48.01C205.056,47.96 204.944,47.96 204.85,48.01L198.46,51.37C198.413,51.396 198.36,51.409 198.306,51.409C198.131,51.409 197.986,51.265 197.986,51.089C197.986,51.073 197.987,51.056 197.99,51.04L199.07,43.84C199.084,43.741 199.051,43.641 198.98,43.57L193.87,38.46C193.811,38.4 193.777,38.319 193.777,38.235C193.777,38.081 193.889,37.948 194.04,37.92L201.42,36.67C201.525,36.654 201.615,36.586 201.66,36.49L204.71,29.91C204.762,29.798 204.876,29.725 205,29.725C205.124,29.725 205.238,29.798 205.29,29.91L208.34,36.48C208.385,36.576 208.475,36.644 208.58,36.66L215.99,37.92C216.145,37.944 216.261,38.079 216.261,38.236C216.261,38.325 216.225,38.41 216.16,38.47L211.01,43.56C210.936,43.629 210.899,43.729 210.91,43.83ZM202.12,43.29L201.38,46.23C201.3,46.557 201.413,46.65 201.72,46.51L204.49,45.2C204.813,45.048 205.187,45.048 205.51,45.2L208.21,46.48C208.557,46.64 208.683,46.537 208.59,46.17L207.89,43.3C207.803,42.967 207.89,42.683 208.15,42.45L210.33,40.46C210.67,40.147 210.617,39.943 210.17,39.85L207.11,39.2C206.777,39.133 206.543,38.943 206.41,38.63L205.26,36.01C205.093,35.637 204.927,35.637 204.76,36.01L203.56,38.64C203.42,38.947 203.187,39.137 202.86,39.21L199.81,39.85C199.31,39.95 199.253,40.17 199.64,40.51L201.85,42.43C202.095,42.637 202.201,42.972 202.12,43.29Z" style="fill:rgb(174,132,0);fill-rule:nonzero;"/>
            </g>
            <g transform="matrix(1,0,0,1,33,14)">
                <g transform="matrix(1.33333,0,0,1.33333,142.801,108.254)">
                    <path d="M198.8,83.45C201.73,85.36 200.74,92.74 201.04,95.89C201.06,96.077 200.98,96.177 200.8,96.19L197.02,96.49C197.018,96.49 197.016,96.49 197.014,96.49C196.834,96.499 196.678,96.361 196.67,96.186C196.67,96.184 196.67,96.182 196.67,96.18L196.52,88.41C196.493,86.99 195.81,86.043 194.47,85.57L194.13,85.44C192.89,85 192.27,85.44 192.27,86.76L192.26,96.47C192.26,96.623 192.183,96.697 192.03,96.69L188.3,96.59C188.15,96.585 188.03,96.46 188.03,96.31L188.04,69.99C188.04,69.69 188.187,69.52 188.48,69.48C197.81,68.25 202.8,69.54 200.28,80.7C200.208,81.027 200.049,81.324 199.82,81.56L198.72,82.7C198.44,82.987 198.467,83.237 198.8,83.45ZM192.26,73.67L192.26,80.93C192.26,81.182 192.468,81.39 192.72,81.39L194.16,81.39C195.477,81.39 196.56,80.189 196.56,78.73L196.56,75.87C196.56,74.411 195.477,73.21 194.16,73.21L192.72,73.21C192.468,73.21 192.26,73.418 192.26,73.67Z" style="fill:rgb(244,244,243);fill-rule:nonzero;"/>
                </g>
                <g transform="matrix(1.33333,0,0,1.33333,142.801,108.254)">
                    <path d="M212.09,78.55L211.96,96.1C211.96,96.3 211.86,96.393 211.66,96.38L208.18,96.18C208.047,96.175 207.94,96.063 207.94,95.93L207.94,69.51C207.94,69.143 208.123,68.963 208.49,68.97L212.66,69.01C213.273,69.017 213.657,69.317 213.81,69.91L217.04,82.3C217.673,84.72 217.99,84.68 217.99,82.18L217.99,69.44C217.99,69.233 218.093,69.14 218.3,69.16L221.52,69.46C221.707,69.48 221.8,69.583 221.8,69.77L221.8,96.05C221.8,96.457 221.597,96.657 221.19,96.65L217.79,96.64C217.448,96.633 217.151,96.398 217.07,96.07C215.62,90.39 213.19,83.94 212.84,78.15C212.84,78.137 212.837,78.13 212.83,78.13L212.51,78.13C212.23,78.137 212.09,78.277 212.09,78.55Z" style="fill:rgb(244,244,243);fill-rule:nonzero;"/>
                </g>
                <g transform="matrix(1.33333,0,0,1.33333,142.801,108.254)">
                    <path d="M180.79,90.97C180.62,99.07 168.22,100.78 167.92,92.41C167.68,86.05 167.657,80.607 167.85,76.08C168.18,68.42 180.68,67.3 180.82,76C180.9,80.993 180.89,85.983 180.79,90.97ZM176.274,75.794C176.274,75.793 176.274,75.792 176.274,75.79C176.274,74.837 175.491,74.052 174.537,74.051L173.954,74.049C173.001,74.049 172.216,74.833 172.214,75.787L172.186,91.986C172.186,91.987 172.186,91.988 172.186,91.99C172.186,92.943 172.969,93.728 173.923,93.73L174.506,93.731C175.459,93.731 176.244,92.947 176.246,91.994L176.274,75.794Z" style="fill:rgb(244,244,243);fill-rule:nonzero;"/>
                </g>
                <g transform="matrix(1.33333,0,0,1.33333,142.801,108.254)">
                    <path d="M233.72,74.45L233.72,81.13C233.724,81.302 233.859,81.445 234.03,81.46L239.24,81.88C239.411,81.895 239.546,82.038 239.55,82.21L239.58,85.72C239.58,85.72 239.58,85.721 239.58,85.721C239.58,85.908 239.427,86.061 239.24,86.061C239.23,86.061 239.22,86.061 239.21,86.06L234.09,85.59C234.08,85.589 234.07,85.589 234.06,85.589C233.873,85.589 233.72,85.742 233.72,85.929C233.72,85.929 233.72,85.93 233.72,85.93L233.72,93.07C233.72,93.249 233.861,93.399 234.04,93.41L240.78,93.81C240.959,93.821 241.1,93.971 241.1,94.15L241.1,97.431C241.1,97.617 240.947,97.771 240.76,97.771C240.753,97.771 240.747,97.77 240.74,97.77L229.56,97.08C229.381,97.069 229.24,96.919 229.24,96.74L229.24,70.29C229.24,70.29 229.24,70.29 229.24,70.289C229.24,70.103 229.393,69.949 229.58,69.949C229.587,69.949 229.593,69.95 229.6,69.95L240.8,70.62C240.979,70.631 241.12,70.781 241.12,70.96L241.07,74.27C241.065,74.453 240.913,74.601 240.73,74.601C240.723,74.601 240.717,74.6 240.71,74.6L234.09,74.11C234.08,74.109 234.07,74.109 234.06,74.109C233.873,74.109 233.72,74.262 233.72,74.449C233.72,74.449 233.72,74.45 233.72,74.45Z" style="fill:rgb(244,244,243);fill-rule:nonzero;"/>
                </g>
                <g transform="matrix(1.33333,0,0,1.33333,142.801,108.254)">
                    <path d="M152.38,76.44L148.92,77.04C148.9,77.044 148.88,77.046 148.86,77.046C148.684,77.046 148.54,76.901 148.54,76.726C148.54,76.724 148.54,76.722 148.54,76.72L148.59,73.2C148.594,73.042 148.713,72.91 148.87,72.89L161.22,71.49C161.23,71.489 161.24,71.489 161.25,71.489C161.426,71.489 161.57,71.633 161.57,71.809C161.57,71.809 161.57,71.81 161.57,71.81L161.59,75.14C161.591,75.305 161.464,75.445 161.3,75.46L157.65,75.87C157.49,75.89 157.369,76.029 157.37,76.19L157.38,98.77C157.381,98.931 157.26,99.07 157.1,99.09L153.11,99.58C153.097,99.582 153.083,99.583 153.07,99.583C152.897,99.583 152.754,99.443 152.75,99.27L152.75,76.76C152.75,76.759 152.75,76.757 152.75,76.756C152.75,76.581 152.606,76.436 152.43,76.436C152.413,76.436 152.397,76.437 152.38,76.44Z" style="fill:rgb(244,244,243);fill-rule:nonzero;"/>
                </g>
                <g transform="matrix(1.33333,0,0,1.33333,142.801,108.254)">
                    <path d="M248,77.01C248.08,75.25 248.46,72.8 250.48,72.25C254.547,71.143 257.507,71.95 259.36,74.67C261.81,78.27 260.77,87.5 260.75,92.04C260.72,96.75 259.77,100.24 254.26,99.59C250.3,99.117 248.223,96.893 248.03,92.92C247.77,87.627 247.76,82.323 248,77.01ZM256.242,77.683C256.239,76.638 255.377,75.779 254.332,75.779C254.33,75.779 254.328,75.779 254.326,75.78L253.986,75.781C252.938,75.784 252.079,76.65 252.082,77.697L252.138,93.637C252.141,94.682 253.003,95.541 254.048,95.541C254.05,95.541 254.052,95.541 254.054,95.541L254.395,95.539C255.442,95.536 256.301,94.67 256.298,93.623L256.242,77.683Z" style="fill:rgb(244,244,243);fill-rule:nonzero;"/>
                </g>
            </g>
            <g transform="matrix(1.33333,0,0,1.33333,175.801,122.254)">
                <path d="M101.51,92.53C101.501,92.532 101.492,92.534 101.483,92.536C101.198,92.595 100.915,92.405 100.855,92.115C100.853,92.107 100.851,92.098 100.85,92.09L100.8,91.79C100.765,91.532 100.924,91.287 101.17,91.22C114.377,87.673 127.72,84.77 141.2,82.51C141.527,82.457 141.757,82.58 141.89,82.88L142.04,83.2C142.065,83.255 142.079,83.315 142.079,83.376C142.079,83.58 141.931,83.755 141.73,83.79C128.19,86.083 114.783,88.997 101.51,92.53Z" style="fill:rgb(174,132,0);fill-rule:nonzero;"/>
            </g>
            <g transform="matrix(1.33333,0,0,1.33333,175.801,122.254)">
                <path d="M310.69,92.49C293.68,88.12 282.33,85.72 270.9,84.02C270.586,83.973 270.346,83.713 270.33,83.4L270.31,83.06C270.31,83.053 270.309,83.047 270.309,83.04C270.309,82.87 270.449,82.73 270.619,82.73C270.62,82.73 270.62,82.73 270.62,82.73C271.787,82.717 272.993,82.82 274.24,83.04C286.24,85.193 298.393,87.873 310.7,91.08C311.12,91.187 311.293,91.457 311.22,91.89L311.18,92.17C311.18,92.172 311.179,92.174 311.179,92.176C311.131,92.396 310.916,92.539 310.701,92.493C310.697,92.492 310.694,92.491 310.69,92.49Z" style="fill:rgb(174,132,0);fill-rule:nonzero;"/>
            </g>
            <g transform="matrix(1.33333,0,0,1.33333,175.801,122.254)">
                <path d="M141.68,92.46C128.32,94.7 115.093,97.57 102,101.07C101.533,101.197 101.21,101.033 101.03,100.58L100.92,100.3C100.833,100.067 100.907,99.92 101.14,99.86C114.353,96.313 127.703,93.42 141.19,91.18C141.488,91.134 141.777,91.309 141.87,91.59L141.99,91.94C142.004,91.981 142.01,92.023 142.01,92.066C142.01,92.259 141.87,92.426 141.68,92.46Z" style="fill:rgb(174,132,0);fill-rule:nonzero;"/>
            </g>
            <g transform="matrix(1.33333,0,0,1.33333,175.801,122.254)">
                <path d="M271.11,91.2C284.48,93.35 297.82,96.16 310.72,99.86C311.347,100.04 311.427,100.377 310.96,100.87C310.755,101.074 310.46,101.155 310.19,101.08C297.177,97.567 284.02,94.71 270.72,92.51C270.515,92.475 270.363,92.295 270.363,92.086C270.363,92.061 270.365,92.035 270.37,92.01L270.43,91.67C270.49,91.36 270.793,91.15 271.11,91.2Z" style="fill:rgb(174,132,0);fill-rule:nonzero;"/>
            </g>
            <g transform="matrix(1.33333,0,0,1.33333,175.801,122.254)">
                <path d="M130.38,130.94C111.293,134.447 92.627,139.223 74.38,145.27C73.953,145.41 73.74,145.257 73.74,144.81L73.75,141.71C73.75,141.313 73.975,140.948 74.33,140.77C74.703,140.59 75.18,140.407 75.76,140.22C90.747,135.44 101.297,132.417 107.41,131.15C113.13,129.96 118.68,128.48 124.54,127.39C137.43,125.01 155.19,121.89 171.79,120.73C192.377,119.297 212.967,119.197 233.56,120.43C236.833,120.63 240.447,120.967 244.4,121.44C248.007,121.873 251.613,122.303 255.22,122.73C282.4,125.983 309.147,131.96 335.46,140.66C335.993,140.84 336.26,141.207 336.26,141.76L336.25,144.71C336.25,145.217 336.01,145.39 335.53,145.23C314.183,138.177 292.507,132.857 270.5,129.27C256.39,126.97 240.54,125.62 225.24,124.6C212.39,123.74 199.45,123.57 186.76,124.46C177.98,125.08 169.29,125.44 160.45,126.54C155.29,127.19 150.19,127.57 145.08,128.57C142.87,129 140.51,129.01 138.48,129.41C135.787,129.93 133.087,130.44 130.38,130.94Z" style="fill:rgb(0,117,74);fill-rule:nonzero;"/>
            </g>
            <g transform="matrix(1.33333,0,0,1.33333,175.801,122.254)">
                <path d="M331.01,228.92C248.43,202.65 161.51,202.64 79.06,228.87C78.627,229.003 78.357,228.85 78.25,228.41C75.303,216.217 73.817,203.747 73.79,191C73.763,176.413 73.75,161.907 73.75,147.48C73.749,147.158 73.96,146.87 74.27,146.77C124.81,129.977 176.717,123.18 229.99,126.38C265.87,128.533 301.05,135.297 335.53,146.67C335.997,146.823 336.23,147.143 336.23,147.63C336.29,163.117 336.277,178.74 336.19,194.5C336.13,205.333 334.61,216.69 331.63,228.57C331.543,228.903 331.337,229.02 331.01,228.92ZM202.28,172.5L202.26,181.87C202.26,181.932 202.259,181.993 202.256,182.054C202.152,184.526 200.038,186.475 197.571,186.372C197.507,186.369 197.444,186.365 197.38,186.36L196.23,186.27C194.275,186.109 192.753,184.452 192.76,182.49L192.78,156.21C192.78,154.329 194.173,152.717 196.03,152.45L197.54,152.24C197.63,152.227 197.72,152.217 197.81,152.211C200.064,152.041 202.059,153.761 202.229,156.02C202.235,156.11 202.239,156.2 202.24,156.29L202.28,161.76C202.285,161.882 202.388,161.98 202.51,161.98L206.57,162.01C206.79,162.01 206.913,161.9 206.94,161.68C207.51,156.14 206.43,149 199.5,148.19C194.127,147.557 190.62,149.117 188.98,152.87C188.28,154.477 187.937,157.77 187.95,162.75C187.97,168.83 187.99,174.91 188.01,180.99C188.01,184.03 188.9,187.66 191.25,189.24C195.69,192.21 202.88,191.45 205.53,186.32C207.82,181.86 207.11,174.49 206.94,168.15C206.933,167.81 206.76,167.647 206.42,167.66L198.26,167.95C198.08,167.957 197.99,168.053 197.99,168.24L198.02,171.9C198.02,172.027 198.083,172.09 198.21,172.09L201.75,172C202.103,171.987 202.28,172.153 202.28,172.5ZM225.99,170.03C231.38,167.63 230.7,158.33 229.25,153.92C228.32,151.09 226.08,149.17 223.25,148.76C220.977,148.433 217.13,148.28 211.71,148.3C211.403,148.3 211.25,148.453 211.25,148.76L211.25,189.95C211.25,190.09 211.32,190.167 211.46,190.18L215.93,190.53C216.083,190.543 216.16,190.47 216.16,190.31L216.15,173.23C216.15,172.87 216.33,172.673 216.69,172.64C219.6,172.35 225.54,173.41 225.35,177.5C225.157,181.78 225.247,186.08 225.62,190.4C225.66,190.807 225.883,191.017 226.29,191.03L230.44,191.15C230.443,191.15 230.446,191.15 230.449,191.15C230.658,191.15 230.829,190.979 230.829,190.77C230.829,190.729 230.823,190.689 230.81,190.65C228.41,183.58 233.18,175.42 225.94,170.6C225.607,170.38 225.623,170.19 225.99,170.03ZM244.02,188.06C240.987,187.72 239.47,186.023 239.47,182.97L239.46,149.92C239.46,149.713 239.36,149.6 239.16,149.58L234.82,149.06C234.814,149.059 234.809,149.059 234.803,149.058C234.683,149.051 234.578,149.149 234.57,149.275C234.57,149.28 234.57,149.285 234.57,149.29C234.51,158.957 234.51,168.673 234.57,178.44C234.61,185.33 235.41,190.84 242.54,192.55C250.91,194.56 253.39,188.7 253.45,181.43C253.543,171.257 253.553,161.137 253.48,151.07C253.473,150.91 253.393,150.827 253.24,150.82L249.07,150.57C248.95,150.563 248.89,150.62 248.89,150.74L248.84,184.95C248.84,186.738 247.368,188.21 245.58,188.21C245.46,188.21 245.34,188.203 245.22,188.19L244.02,188.06ZM169.97,173.79C172.26,173.71 175.16,173.25 176.97,174.65C178.177,175.59 178.75,176.88 178.69,178.52C178.55,182.62 178.71,186.697 179.17,190.75C179.21,191.097 179.403,191.26 179.75,191.24L184,190.95C184.34,190.93 184.453,190.757 184.34,190.43C182.49,185.29 184.31,179.83 182.63,174.38C182.07,172.58 180.92,171.86 179.35,171.07C178.943,170.863 178.933,170.637 179.32,170.39C184.12,167.43 183.59,161.54 183.18,156.49C182.4,146.87 172.57,149.21 165.2,150.28C164.907,150.32 164.76,150.487 164.76,150.78L164.76,191.97C164.76,192.11 164.83,192.173 164.97,192.16L169.26,191.77C169.427,191.75 169.51,191.657 169.51,191.49L169.5,174.28C169.5,173.967 169.657,173.803 169.97,173.79ZM148.34,189.9C148.327,189.902 148.313,189.903 148.3,189.903C148.138,189.903 148.004,189.772 148,189.61L148,175.56C148.003,175.416 148.108,175.294 148.25,175.27L157.79,173.7C157.935,173.675 158.042,173.547 158.04,173.4L158.03,169.92C158.025,169.759 157.891,169.628 157.73,169.628C157.72,169.628 157.71,169.629 157.7,169.63L148.33,170.62C148.32,170.621 148.31,170.622 148.3,170.622C148.139,170.622 148.005,170.491 148,170.33L148,156.77C147.999,156.616 148.117,156.485 148.27,156.47L160.27,155.07C160.423,155.055 160.541,154.924 160.54,154.77L160.5,150.81C160.496,150.648 160.362,150.517 160.2,150.517C160.187,150.517 160.173,150.518 160.16,150.52L143.52,152.79C143.371,152.81 143.259,152.939 143.26,153.09L143.26,194.65C143.26,194.651 143.26,194.652 143.26,194.653C143.26,194.817 143.395,194.953 143.56,194.953C143.573,194.953 143.587,194.952 143.6,194.95L160.27,192.77C160.416,192.75 160.526,192.627 160.53,192.48L160.53,188.58C160.526,188.418 160.392,188.287 160.23,188.287C160.217,188.287 160.203,188.288 160.19,188.29L148.34,189.9ZM263.44,177.94C267.05,178.81 272.03,179.57 274.55,176.56C277.16,173.45 276.83,165.99 276.23,162.26C274.58,152.06 266.35,152.78 258.4,151.75C258.033,151.703 257.85,151.867 257.85,152.24L257.85,193.23C257.851,193.457 258.012,193.651 258.23,193.69L262.26,194.41C262.283,194.414 262.307,194.416 262.33,194.416C262.559,194.416 262.748,194.229 262.75,194L262.75,178.49C262.75,178.017 262.98,177.833 263.44,177.94ZM127.37,160.03C127.39,160.026 127.41,160.024 127.43,160.024C127.593,160.024 127.728,160.157 127.73,160.32L127.73,197.31C127.732,197.473 127.867,197.606 128.03,197.606C128.05,197.606 128.07,197.604 128.09,197.6L132.31,196.82C132.451,196.791 132.553,196.664 132.55,196.52L132.55,159.47C132.551,159.332 132.646,159.212 132.78,159.18L139.9,157.57C140.034,157.538 140.129,157.418 140.13,157.28L140.13,153.64C140.13,153.639 140.13,153.637 140.13,153.636C140.13,153.471 139.995,153.336 139.83,153.336C139.813,153.336 139.797,153.337 139.78,153.34L120.5,156.82C120.358,156.844 120.253,156.966 120.25,157.11L120.25,161.15C120.252,161.313 120.387,161.446 120.55,161.446C120.57,161.446 120.59,161.444 120.61,161.44L127.37,160.03ZM292.57,157.66C285.86,154.44 279.82,156.53 279.78,164.25C279.733,171.997 279.737,179.75 279.79,187.51C279.83,193.943 282.7,197.913 288.4,199.42C294,200.9 298.47,198.5 298.65,192.37C298.83,186.41 298.807,178.24 298.58,167.86C298.473,162.927 296.47,159.527 292.57,157.66ZM102.64,171.72L112.15,200.43C112.243,200.703 112.43,200.813 112.71,200.76L116.58,200.05C116.933,199.983 117.11,199.77 117.11,199.41L117.13,158.24C117.13,157.8 116.913,157.623 116.48,157.71L113.75,158.24C113.384,158.312 113.119,158.632 113.12,159L113.12,185.78C113.12,187.827 112.793,187.88 112.14,185.94L103.93,161.44C103.803,161.073 103.55,160.933 103.17,161.02L98.21,162.18C97.897,162.253 97.74,162.453 97.74,162.78L97.74,204.05C97.74,204.25 97.84,204.333 98.04,204.3L101.92,203.64C102.113,203.607 102.21,203.493 102.21,203.3C102.197,193.647 102.2,183.967 102.22,174.26C102.22,173.26 102.287,172.417 102.42,171.73C102.473,171.443 102.547,171.44 102.64,171.72ZM307.15,169.03C307.43,166.22 310.2,165.68 312.33,166.5C315.49,167.72 316.56,171.68 316.06,174.76C316.027,174.967 316.113,175.09 316.32,175.13L320.35,175.89C320.363,175.893 320.377,175.894 320.39,175.894C320.505,175.894 320.6,175.799 320.6,175.684C320.6,175.683 320.6,175.681 320.6,175.68C320.73,168.26 317.33,162.35 309.5,161.4C303.13,160.63 301.75,167.61 302.57,172.5C304.06,181.27 313.22,185.35 315.69,193.24C316.37,195.42 316.33,200.69 312.81,200.54C307.22,200.3 306.46,195.48 306.67,190.85C306.682,190.496 306.434,190.184 306.09,190.12L302.75,189.49C302.41,189.43 302.223,189.573 302.19,189.92C301.57,197.66 305.26,204.34 313.49,205.32C316.483,205.68 318.483,204.733 319.49,202.48C323.75,192.94 316.17,185.33 310.31,178.74C307.837,175.953 306.783,172.717 307.15,169.03ZM88.75,207C88.75,207 88.75,207.001 88.75,207.001C88.75,207.165 88.885,207.301 89.05,207.301C89.088,207.301 89.125,207.294 89.16,207.28L93.32,205.71C93.435,205.665 93.51,205.553 93.51,205.43L93.51,164.09C93.51,164.09 93.51,164.089 93.51,164.089C93.51,163.925 93.375,163.789 93.21,163.789C93.183,163.789 93.156,163.793 93.13,163.8L88.97,164.95C88.84,164.986 88.75,165.105 88.75,165.24L88.75,207Z" style="fill:rgb(0,117,74);fill-rule:nonzero;"/>
            </g>
            <g transform="matrix(1.33333,0,0,1.33333,175.801,122.254)">
                <path d="M201.75,172L198.21,172.09C198.083,172.09 198.02,172.027 198.02,171.9L197.99,168.24C197.99,168.053 198.08,167.957 198.26,167.95L206.42,167.66C206.76,167.647 206.933,167.81 206.94,168.15C207.11,174.49 207.82,181.86 205.53,186.32C202.88,191.45 195.69,192.21 191.25,189.24C188.9,187.66 188.01,184.03 188.01,180.99C187.99,174.91 187.97,168.83 187.95,162.75C187.937,157.77 188.28,154.477 188.98,152.87C190.62,149.117 194.127,147.557 199.5,148.19C206.43,149 207.51,156.14 206.94,161.68C206.913,161.9 206.79,162.01 206.57,162.01L202.51,161.98C202.388,161.98 202.285,161.882 202.28,161.76L202.24,156.29C202.239,156.2 202.235,156.11 202.229,156.02C202.059,153.761 200.064,152.041 197.81,152.211C197.72,152.217 197.63,152.227 197.54,152.24L196.03,152.45C194.173,152.717 192.78,154.329 192.78,156.21L192.76,182.49C192.753,184.452 194.275,186.109 196.23,186.27L197.38,186.36C197.444,186.365 197.507,186.369 197.571,186.372C200.038,186.475 202.152,184.526 202.256,182.054C202.259,181.993 202.26,181.932 202.26,181.87L202.28,172.5C202.28,172.153 202.103,171.987 201.75,172Z" style="fill:rgb(244,244,243);fill-rule:nonzero;"/>
            </g>
            <g transform="matrix(1.33333,0,0,1.33333,175.801,122.254)">
                <path d="M225.94,170.6C233.18,175.42 228.41,183.58 230.81,190.65C230.823,190.689 230.829,190.729 230.829,190.77C230.829,190.979 230.658,191.15 230.449,191.15C230.446,191.15 230.443,191.15 230.44,191.15L226.29,191.03C225.883,191.017 225.66,190.807 225.62,190.4C225.247,186.08 225.157,181.78 225.35,177.5C225.54,173.41 219.6,172.35 216.69,172.64C216.33,172.673 216.15,172.87 216.15,173.23L216.16,190.31C216.16,190.47 216.083,190.543 215.93,190.53L211.46,190.18C211.32,190.167 211.25,190.09 211.25,189.95L211.25,148.76C211.25,148.453 211.403,148.3 211.71,148.3C217.13,148.28 220.977,148.433 223.25,148.76C226.08,149.17 228.32,151.09 229.25,153.92C230.7,158.33 231.38,167.63 225.99,170.03C225.623,170.19 225.607,170.38 225.94,170.6ZM216.04,153.41L216.12,167.73C216.12,168.059 216.391,168.33 216.72,168.33L220.39,168.31C223.127,168.299 225.37,166.105 225.36,163.45L225.32,157.61C225.32,157.608 225.32,157.606 225.32,157.604C225.306,154.951 223.045,152.778 220.31,152.79L216.64,152.81C216.311,152.81 216.04,153.081 216.04,153.41Z" style="fill:rgb(244,244,243);fill-rule:nonzero;"/>
            </g>
            <g transform="matrix(1.33333,0,0,1.33333,175.801,122.254)">
                <path d="M244.02,188.06L245.22,188.19C245.34,188.203 245.46,188.21 245.58,188.21C247.368,188.21 248.84,186.738 248.84,184.95L248.89,150.74C248.89,150.62 248.95,150.563 249.07,150.57L253.24,150.82C253.393,150.827 253.473,150.91 253.48,151.07C253.553,161.137 253.543,171.257 253.45,181.43C253.39,188.7 250.91,194.56 242.54,192.55C235.41,190.84 234.61,185.33 234.57,178.44C234.51,168.673 234.51,158.957 234.57,149.29C234.57,149.285 234.57,149.28 234.57,149.275C234.578,149.149 234.683,149.051 234.803,149.058C234.809,149.059 234.814,149.059 234.82,149.06L239.16,149.58C239.36,149.6 239.46,149.713 239.46,149.92L239.47,182.97C239.47,186.023 240.987,187.72 244.02,188.06Z" style="fill:rgb(244,244,243);fill-rule:nonzero;"/>
            </g>
            <g transform="matrix(1.33333,0,0,1.33333,175.801,122.254)">
                <path d="M169.5,174.28L169.51,191.49C169.51,191.657 169.427,191.75 169.26,191.77L164.97,192.16C164.83,192.173 164.76,192.11 164.76,191.97L164.76,150.78C164.76,150.487 164.907,150.32 165.2,150.28C172.57,149.21 182.4,146.87 183.18,156.49C183.59,161.54 184.12,167.43 179.32,170.39C178.933,170.637 178.943,170.863 179.35,171.07C180.92,171.86 182.07,172.58 182.63,174.38C184.31,179.83 182.49,185.29 184.34,190.43C184.453,190.757 184.34,190.93 184,190.95L179.75,191.24C179.403,191.26 179.21,191.097 179.17,190.75C178.71,186.697 178.55,182.62 178.69,178.52C178.75,176.88 178.177,175.59 176.97,174.65C175.16,173.25 172.26,173.71 169.97,173.79C169.657,173.803 169.5,173.967 169.5,174.28ZM178.04,166.3C179.1,162.91 179.42,156.85 176.94,154.36C176.667,154.08 176.337,153.943 175.95,153.95L170.1,154.05C169.707,154.057 169.51,154.257 169.51,154.65L169.5,168.99C169.5,169.337 169.673,169.51 170.02,169.51C172.31,169.48 177.17,169.06 178.04,166.3Z" style="fill:rgb(244,244,243);fill-rule:nonzero;"/>
            </g>
            <g transform="matrix(1.33333,0,0,1.33333,175.801,122.254)">
                <path d="M148.34,189.9L160.19,188.29C160.203,188.288 160.217,188.287 160.23,188.287C160.392,188.287 160.526,188.418 160.53,188.58L160.53,192.48C160.526,192.627 160.416,192.75 160.27,192.77L143.6,194.95C143.587,194.952 143.573,194.953 143.56,194.953C143.395,194.953 143.26,194.817 143.26,194.653C143.26,194.652 143.26,194.651 143.26,194.65L143.26,153.09C143.259,152.939 143.371,152.81 143.52,152.79L160.16,150.52C160.173,150.518 160.187,150.517 160.2,150.517C160.362,150.517 160.496,150.648 160.5,150.81L160.54,154.77C160.541,154.924 160.423,155.055 160.27,155.07L148.27,156.47C148.117,156.485 147.999,156.616 148,156.77L148,170.33C148.005,170.491 148.139,170.622 148.3,170.622C148.31,170.622 148.32,170.621 148.33,170.62L157.7,169.63C157.71,169.629 157.72,169.628 157.73,169.628C157.891,169.628 158.025,169.759 158.03,169.92L158.04,173.4C158.042,173.547 157.935,173.675 157.79,173.7L148.25,175.27C148.108,175.294 148.003,175.416 148,175.56L148,189.61C148.004,189.772 148.138,189.903 148.3,189.903C148.313,189.903 148.327,189.902 148.34,189.9Z" style="fill:rgb(244,244,243);fill-rule:nonzero;"/>
            </g>
            <g transform="matrix(1.33333,0,0,1.33333,175.801,122.254)">
                <path d="M262.75,178.49L262.75,194C262.748,194.229 262.559,194.416 262.33,194.416C262.307,194.416 262.283,194.414 262.26,194.41L258.23,193.69C258.012,193.651 257.851,193.457 257.85,193.23L257.85,152.24C257.85,151.867 258.033,151.703 258.4,151.75C266.35,152.78 274.58,152.06 276.23,162.26C276.83,165.99 277.16,173.45 274.55,176.56C272.03,179.57 267.05,178.81 263.44,177.94C262.98,177.833 262.75,178.017 262.75,178.49ZM271.08,160.19C269.75,157.26 266.65,157.21 263.16,156.91C262.887,156.883 262.75,157.01 262.75,157.29L262.75,171.97C262.75,173.117 263.323,173.723 264.47,173.79L269.07,174.05C270.177,174.114 271.162,173.316 271.33,172.22C272.217,166.52 272.133,162.51 271.08,160.19Z" style="fill:rgb(244,244,243);fill-rule:nonzero;"/>
            </g>
            <g transform="matrix(1.33333,0,0,1.33333,175.801,122.254)">
                <path d="M216.04,153.41C216.04,153.081 216.311,152.81 216.64,152.81L220.31,152.79C223.045,152.778 225.306,154.951 225.32,157.604C225.32,157.606 225.32,157.608 225.32,157.61L225.36,163.45C225.37,166.105 223.127,168.299 220.39,168.31L216.72,168.33C216.391,168.33 216.12,168.059 216.12,167.73L216.04,153.41Z" style="fill:rgb(0,117,74);fill-rule:nonzero;"/>
            </g>
            <g transform="matrix(1.33333,0,0,1.33333,175.801,122.254)">
                <path d="M127.37,160.03L120.61,161.44C120.59,161.444 120.57,161.446 120.55,161.446C120.387,161.446 120.252,161.313 120.25,161.15L120.25,157.11C120.253,156.966 120.358,156.844 120.5,156.82L139.78,153.34C139.797,153.337 139.813,153.336 139.83,153.336C139.995,153.336 140.13,153.471 140.13,153.636C140.13,153.637 140.13,153.639 140.13,153.64L140.13,157.28C140.129,157.418 140.034,157.538 139.9,157.57L132.78,159.18C132.646,159.212 132.551,159.332 132.55,159.47L132.55,196.52C132.553,196.664 132.451,196.791 132.31,196.82L128.09,197.6C128.07,197.604 128.05,197.606 128.03,197.606C127.867,197.606 127.732,197.473 127.73,197.31L127.73,160.32C127.728,160.157 127.593,160.024 127.43,160.024C127.41,160.024 127.39,160.026 127.37,160.03Z" style="fill:rgb(244,244,243);fill-rule:nonzero;"/>
            </g>
            <g transform="matrix(1.33333,0,0,1.33333,175.801,122.254)">
                <path d="M178.04,166.3C177.17,169.06 172.31,169.48 170.02,169.51C169.673,169.51 169.5,169.337 169.5,168.99L169.51,154.65C169.51,154.257 169.707,154.057 170.1,154.05L175.95,153.95C176.337,153.943 176.667,154.08 176.94,154.36C179.42,156.85 179.1,162.91 178.04,166.3Z" style="fill:rgb(0,117,74);fill-rule:nonzero;"/>
            </g>
            <g transform="matrix(1.33333,0,0,1.33333,175.801,122.254)">
                <path d="M292.57,157.66C296.47,159.527 298.473,162.927 298.58,167.86C298.807,178.24 298.83,186.41 298.65,192.37C298.47,198.5 294,200.9 288.4,199.42C282.7,197.913 279.83,193.943 279.79,187.51C279.737,179.75 279.733,171.997 279.78,164.25C279.82,156.53 285.86,154.44 292.57,157.66ZM288.76,194.84L290.18,195.25C290.314,195.289 290.45,195.319 290.588,195.339C292.189,195.569 293.698,194.437 293.93,192.83C293.95,192.691 293.96,192.55 293.96,192.41L294.02,166.85C294.027,164.109 292.065,161.725 289.37,161.2L288.14,160.96C287.936,160.92 287.728,160.9 287.52,160.9C285.763,160.9 284.315,162.343 284.31,164.1L284.26,188.83C284.253,191.963 285.753,193.967 288.76,194.84Z" style="fill:rgb(244,244,243);fill-rule:nonzero;"/>
            </g>
            <g transform="matrix(1.33333,0,0,1.33333,175.801,122.254)">
                <path d="M271.08,160.19C272.133,162.51 272.217,166.52 271.33,172.22C271.162,173.316 270.177,174.114 269.07,174.05L264.47,173.79C263.323,173.723 262.75,173.117 262.75,171.97L262.75,157.29C262.75,157.01 262.887,156.883 263.16,156.91C266.65,157.21 269.75,157.26 271.08,160.19Z" style="fill:rgb(0,117,74);fill-rule:nonzero;"/>
            </g>
            <g transform="matrix(1.33333,0,0,1.33333,175.801,122.254)">
                <path d="M102.42,171.73C102.287,172.417 102.22,173.26 102.22,174.26C102.2,183.967 102.197,193.647 102.21,203.3C102.21,203.493 102.113,203.607 101.92,203.64L98.04,204.3C97.84,204.333 97.74,204.25 97.74,204.05L97.74,162.78C97.74,162.453 97.897,162.253 98.21,162.18L103.17,161.02C103.55,160.933 103.803,161.073 103.93,161.44L112.14,185.94C112.793,187.88 113.12,187.827 113.12,185.78L113.12,159C113.119,158.632 113.384,158.312 113.75,158.24L116.48,157.71C116.913,157.623 117.13,157.8 117.13,158.24L117.11,199.41C117.11,199.77 116.933,199.983 116.58,200.05L112.71,200.76C112.43,200.813 112.243,200.703 112.15,200.43L102.64,171.72C102.547,171.44 102.473,171.443 102.42,171.73Z" style="fill:rgb(244,244,243);fill-rule:nonzero;"/>
            </g>
            <g transform="matrix(1.33333,0,0,1.33333,175.801,122.254)">
                <path d="M288.76,194.84C285.753,193.967 284.253,191.963 284.26,188.83L284.31,164.1C284.315,162.343 285.763,160.9 287.52,160.9C287.728,160.9 287.936,160.92 288.14,160.96L289.37,161.2C292.065,161.725 294.027,164.109 294.02,166.85L293.96,192.41C293.96,192.55 293.95,192.691 293.93,192.83C293.698,194.437 292.189,195.569 290.588,195.339C290.45,195.319 290.314,195.289 290.18,195.25L288.76,194.84Z" style="fill:rgb(0,117,74);fill-rule:nonzero;"/>
            </g>
            <g transform="matrix(1.33333,0,0,1.33333,175.801,122.254)">
                <path d="M312.33,166.5C310.2,165.68 307.43,166.22 307.15,169.03C306.783,172.717 307.837,175.953 310.31,178.74C316.17,185.33 323.75,192.94 319.49,202.48C318.483,204.733 316.483,205.68 313.49,205.32C305.26,204.34 301.57,197.66 302.19,189.92C302.223,189.573 302.41,189.43 302.75,189.49L306.09,190.12C306.434,190.184 306.682,190.496 306.67,190.85C306.46,195.48 307.22,200.3 312.81,200.54C316.33,200.69 316.37,195.42 315.69,193.24C313.22,185.35 304.06,181.27 302.57,172.5C301.75,167.61 303.13,160.63 309.5,161.4C317.33,162.35 320.73,168.26 320.6,175.68C320.6,175.681 320.6,175.683 320.6,175.684C320.6,175.799 320.505,175.894 320.39,175.894C320.377,175.894 320.363,175.893 320.35,175.89L316.32,175.13C316.113,175.09 316.027,174.967 316.06,174.76C316.56,171.68 315.49,167.72 312.33,166.5Z" style="fill:rgb(244,244,243);fill-rule:nonzero;"/>
            </g>
            <g transform="matrix(1.33333,0,0,1.33333,175.801,122.254)">
                <path d="M88.75,207L88.75,165.24C88.75,165.105 88.84,164.986 88.97,164.95L93.13,163.8C93.156,163.793 93.183,163.789 93.21,163.789C93.375,163.789 93.51,163.925 93.51,164.089C93.51,164.089 93.51,164.09 93.51,164.09L93.51,205.43C93.51,205.553 93.435,205.665 93.32,205.71L89.16,207.28C89.125,207.294 89.088,207.301 89.05,207.301C88.885,207.301 88.75,207.165 88.75,207.001C88.75,207.001 88.75,207 88.75,207Z" style="fill:rgb(244,244,243);fill-rule:nonzero;"/>
            </g>
            <g transform="matrix(1.33333,0,0,1.33333,175.801,122.254)">
                <path d="M315.28,230.7C317.393,227.873 315.29,227.313 308.97,229.02C289.663,224.133 269.917,220.603 249.73,218.43C243.25,217.73 236.76,216.87 230.4,216.55C209.067,215.483 190.517,215.583 174.75,216.85C150.94,218.76 127.53,222.53 104.34,228.27C102.907,228.623 101.62,228.79 100.48,228.77C98.333,228.123 96.283,227.983 94.33,228.35C93.99,228.417 93.847,228.62 93.9,228.96C93.98,229.487 94.217,230.067 94.61,230.7L80.44,234.95C80.073,235.057 79.847,234.923 79.76,234.55L78.97,231.01C78.89,230.663 79.02,230.433 79.36,230.32C161.16,204.05 248.98,204.15 330.63,230.3C330.923,230.394 331.098,230.704 331.03,231.01L330.25,234.56C330.163,234.94 329.933,235.073 329.56,234.96L315.28,230.7Z" style="fill:rgb(0,117,74);fill-rule:nonzero;"/>
            </g>
            <g transform="matrix(1,0,0,1,33,14)">
                <g transform="matrix(1.33333,0,0,1.33333,142.801,108.254)">
                    <path d="M100.48,228.77C98.667,229.823 96.71,230.467 94.61,230.7C94.217,230.067 93.98,229.487 93.9,228.96C93.847,228.62 93.99,228.417 94.33,228.35C96.283,227.983 98.333,228.123 100.48,228.77Z" style="fill:rgb(244,244,243);fill-rule:nonzero;"/>
                </g>
                <g transform="matrix(1.33333,0,0,1.33333,142.801,108.254)">
                    <path d="M112.83,228.94L133.11,230.3C133.25,230.307 133.313,230.383 133.3,230.53L133.3,230.54C133.293,230.68 133.22,230.747 133.08,230.74C122.1,230.49 111.63,232.24 101.8,232.16L112.83,228.94Z" style="fill:rgb(244,244,243);fill-rule:nonzero;"/>
                </g>
                <g transform="matrix(1.33333,0,0,1.33333,142.801,108.254)">
                    <path d="M98.9,234.25L137.12,236.02C137.127,236.02 137.13,236.023 137.13,236.03L137.14,236.33C137.14,236.463 137.073,236.533 136.94,236.54L99.99,238.39C99.23,237.083 98.867,235.703 98.9,234.25Z" style="fill:rgb(244,244,243);fill-rule:nonzero;"/>
                </g>
                <g transform="matrix(1.33333,0,0,1.33333,142.801,108.254)">
                    <path d="M100.75,240.1L139.29,242.65C139.39,242.657 139.44,242.713 139.44,242.82C139.433,242.92 139.38,242.973 139.28,242.98L102.32,244.66C101.333,243.287 100.81,241.767 100.75,240.1Z" style="fill:rgb(244,244,243);fill-rule:nonzero;"/>
                </g>
                <g transform="matrix(1.33333,0,0,1.33333,142.801,108.254)">
                    <path d="M102.97,246.32L140.93,248.34C141.017,248.34 141.063,248.383 141.07,248.47L141.07,248.48C141.077,248.573 141.033,248.623 140.94,248.63L104.76,250.41C103.867,249.17 103.27,247.807 102.97,246.32Z" style="fill:rgb(244,244,243);fill-rule:nonzero;"/>
                </g>
                <g transform="matrix(1.33333,0,0,1.33333,142.801,108.254)">
                    <path d="M105.9,252.18L143.78,254.94C143.849,254.943 143.905,255.001 143.905,255.07C143.905,255.141 143.846,255.2 143.775,255.2C143.773,255.2 143.772,255.2 143.77,255.2L107.44,256.59C106.513,255.257 106,253.787 105.9,252.18Z" style="fill:rgb(244,244,243);fill-rule:nonzero;"/>
                </g>
                <g transform="matrix(1.33333,0,0,1.33333,142.801,108.254)">
                    <path d="M108.56,258.38L148.09,260.87C148.117,260.87 148.12,260.883 148.1,260.91L147.89,261.12C147.87,261.147 147.843,261.16 147.81,261.16L110.63,262.5C109.657,261.38 108.967,260.007 108.56,258.38Z" style="fill:rgb(244,244,243);fill-rule:nonzero;"/>
                </g>
                <g transform="matrix(1.33333,0,0,1.33333,142.801,108.254)">
                    <path d="M111.96,264.47L151.58,267.45C152.113,267.49 152.113,267.517 151.58,267.53L113.85,268.38C113.017,267.24 112.387,265.937 111.96,264.47Z" style="fill:rgb(244,244,243);fill-rule:nonzero;"/>
                </g>
                <g transform="matrix(1.33333,0,0,1.33333,142.801,108.254)">
                    <path d="M115.75,270.58L154.92,273.03C154.967,273.037 154.99,273.057 154.99,273.09L154.99,273.13C154.983,273.17 154.973,273.19 154.96,273.19L117.88,274.52C116.62,273.253 115.91,271.94 115.75,270.58Z" style="fill:rgb(244,244,243);fill-rule:nonzero;"/>
                </g>
                <g transform="matrix(1.33333,0,0,1.33333,142.801,108.254)">
                    <path d="M119.74,276.73L159.04,279.31C159.187,279.323 159.257,279.403 159.25,279.55L159.25,279.56C159.25,279.707 159.173,279.78 159.02,279.78L122.26,280.38C120.947,279.607 120.107,278.39 119.74,276.73Z" style="fill:rgb(244,244,243);fill-rule:nonzero;"/>
                </g>
                <g transform="matrix(1.33333,0,0,1.33333,142.801,108.254)">
                    <path d="M124.64,282.74L161.56,285.52C161.66,285.525 161.74,285.609 161.74,285.71C161.74,285.73 161.736,285.751 161.73,285.77C161.69,285.89 161.61,285.95 161.49,285.95C148.623,285.797 136.963,285.897 126.51,286.25C125.137,285.163 124.513,283.993 124.64,282.74Z" style="fill:rgb(244,244,243);fill-rule:nonzero;"/>
                </g>
                <g transform="matrix(1.33333,0,0,1.33333,142.801,108.254)">
                    <path d="M129.4,289L166.88,291.02C167,291.027 167.063,291.09 167.07,291.21C167.07,291.337 167.007,291.4 166.88,291.4L131.77,292.28C130.477,291.373 129.687,290.28 129.4,289Z" style="fill:rgb(244,244,243);fill-rule:nonzero;"/>
                </g>
                <g transform="matrix(1.33333,0,0,1.33333,142.801,108.254)">
                    <path d="M135.1,294.79L169.01,297.19C169.09,297.197 169.13,297.243 169.13,297.33C169.123,297.417 169.08,297.46 169,297.46L137.41,298.14C135.943,297.32 135.173,296.203 135.1,294.79Z" style="fill:rgb(244,244,243);fill-rule:nonzero;"/>
                </g>
                <g transform="matrix(1.33333,0,0,1.33333,142.801,108.254)">
                    <path d="M140.96,300.89L171.08,302.95C171.115,302.949 171.147,302.962 171.17,302.986C171.215,303.034 171.209,303.114 171.157,303.163C171.133,303.185 171.102,303.199 171.07,303.2L143.4,303.74C142.113,302.94 141.3,301.99 140.96,300.89Z" style="fill:rgb(244,244,243);fill-rule:nonzero;"/>
                </g>
                <g transform="matrix(1.33333,0,0,1.33333,142.801,108.254)">
                    <path d="M147.33,306.86C156.35,306.83 165.43,308.06 174.42,308.83C174.473,308.837 174.5,308.867 174.5,308.92L174.5,308.96C174.5,308.987 174.483,309 174.45,309L149.97,309.52C149.017,308.873 148.137,307.987 147.33,306.86Z" style="fill:rgb(244,244,243);fill-rule:nonzero;"/>
                </g>
                <g transform="matrix(1.33333,0,0,1.33333,142.801,108.254)">
                    <path d="M154.99,313.01C155.163,312.637 155.417,312.463 155.75,312.49C163.997,313.063 172.167,313.607 180.26,314.12C180.286,314.119 180.311,314.128 180.328,314.146C180.362,314.183 180.357,314.243 180.317,314.281C180.298,314.298 180.274,314.309 180.25,314.31L158.94,315.11C158.573,315.123 158.237,315.033 157.93,314.84L154.99,313.01Z" style="fill:rgb(244,244,243);fill-rule:nonzero;"/>
                </g>
                <g transform="matrix(1.33333,0,0,1.33333,142.801,108.254)">
                    <path d="M164.7,318.26C170.16,318.6 175.43,319.29 180.93,319.3C181.017,319.3 181.063,319.34 181.07,319.42L181.07,319.43C181.07,319.517 181.03,319.563 180.95,319.57C176.917,319.97 172.873,320.3 168.82,320.56C167.05,320.68 165.87,319.87 164.46,319.05C163.427,318.45 163.507,318.187 164.7,318.26Z" style="fill:rgb(244,244,243);fill-rule:nonzero;"/>
                </g>
            </g>
            <g transform="matrix(1,0,0,1,33,14)">
                <g transform="matrix(1.33333,0,0,1.33333,142.801,108.254)">
                    <path d="M315.28,230.7L308.97,229.02C315.29,227.313 317.393,227.873 315.28,230.7Z" style="fill:rgb(244,244,243);fill-rule:nonzero;"/>
                </g>
                <g transform="matrix(1.33333,0,0,1.33333,142.801,108.254)">
                    <path d="M296.79,228.85C298.477,229.163 300.167,229.567 301.86,230.06C303.58,230.57 306.13,230.58 307.78,232.27L276.87,230.67C276.75,230.663 276.687,230.603 276.68,230.49L276.68,230.48C276.673,230.36 276.73,230.293 276.85,230.28L296.79,228.85Z" style="fill:rgb(244,244,243);fill-rule:nonzero;"/>
                </g>
                <g transform="matrix(1.33333,0,0,1.33333,142.801,108.254)">
                    <path d="M311.31,234.26C311.123,235.807 310.703,237.183 310.05,238.39L273.09,236.53C272.93,236.523 272.85,236.437 272.85,236.27L272.85,236.26C272.857,236.1 272.94,236.017 273.1,236.01L311.31,234.26Z" style="fill:rgb(244,244,243);fill-rule:nonzero;"/>
                </g>
                <g transform="matrix(1.33333,0,0,1.33333,142.801,108.254)">
                    <path d="M309.46,240.06C309.227,241.547 308.647,243.04 307.72,244.54L270.61,242.99C270.177,242.97 270.17,242.91 270.59,242.81C270.63,242.797 270.77,242.78 271.01,242.76C283.81,241.47 296.63,241.02 309.46,240.06Z" style="fill:rgb(244,244,243);fill-rule:nonzero;"/>
                </g>
                <g transform="matrix(1.33333,0,0,1.33333,142.801,108.254)">
                    <path d="M307.25,246.25L305.26,250.39L269.53,249.07C269.297,249.057 269.147,248.937 269.08,248.71L268.99,248.39C268.95,248.23 269.01,248.153 269.17,248.16C274.77,248.327 280.363,248.147 285.95,247.62C293.95,246.87 300.11,246.63 307.25,246.25Z" style="fill:rgb(244,244,243);fill-rule:nonzero;"/>
                </g>
                <g transform="matrix(1.33333,0,0,1.33333,142.801,108.254)">
                    <path d="M304.12,252.18C304.033,253.647 303.533,255.093 302.62,256.52L265.88,255.21C265.82,255.21 265.79,255.183 265.79,255.13L265.79,255.08C265.783,255.047 265.797,255.03 265.83,255.03L304.12,252.18Z" style="fill:rgb(244,244,243);fill-rule:nonzero;"/>
                </g>
                <g transform="matrix(1.33333,0,0,1.33333,142.801,108.254)">
                    <path d="M301.48,258.34C301.033,260.04 300.32,261.42 299.34,262.48L262.44,261.17C261.607,261.143 261.607,261.1 262.44,261.04L301.48,258.34Z" style="fill:rgb(244,244,243);fill-rule:nonzero;"/>
                </g>
                <g transform="matrix(1.33333,0,0,1.33333,142.801,108.254)">
                    <path d="M297.88,264.45C297.72,265.843 297.173,267.097 296.24,268.21L258.39,267.56C258.376,267.563 258.363,267.56 258.355,267.551C258.339,267.536 258.341,267.507 258.361,267.487C258.369,267.478 258.379,267.472 258.39,267.47L297.88,264.45Z" style="fill:rgb(244,244,243);fill-rule:nonzero;"/>
                </g>
                <g transform="matrix(1.33333,0,0,1.33333,142.801,108.254)">
                    <path d="M294.29,270.58C294.01,271.94 293.303,273.233 292.17,274.46L255.18,273.26C255.178,273.26 255.176,273.26 255.174,273.26C255.119,273.257 255.077,273.201 255.08,273.136C255.08,273.134 255.08,273.132 255.08,273.13L255.08,273.08C255.08,273.047 255.097,273.03 255.13,273.03L294.29,270.58Z" style="fill:rgb(244,244,243);fill-rule:nonzero;"/>
                </g>
                <g transform="matrix(1.33333,0,0,1.33333,142.801,108.254)">
                    <path d="M289.87,276.74C289.843,278.287 289.147,279.493 287.78,280.36L250.91,279.75C250.763,279.75 250.687,279.677 250.68,279.53L250.68,279.52C250.68,279.373 250.753,279.297 250.9,279.29L289.87,276.74Z" style="fill:rgb(244,244,243);fill-rule:nonzero;"/>
                </g>
                <g transform="matrix(1.33333,0,0,1.33333,142.801,108.254)">
                    <path d="M285.49,282.63C285.27,284.003 284.6,285.217 283.48,286.27L248.4,286.04C248.273,286.04 248.207,285.98 248.2,285.86L248.2,285.85C248.193,285.723 248.25,285.653 248.37,285.64L285.49,282.63Z" style="fill:rgb(244,244,243);fill-rule:nonzero;"/>
                </g>
                <g transform="matrix(1.33333,0,0,1.33333,142.801,108.254)">
                    <path d="M280.31,288.96C279.87,290.373 279.193,291.48 278.28,292.28L243.41,291.52C243.314,291.522 243.229,291.454 243.21,291.36L243.16,291.08C243.147,291.007 243.15,290.97 243.17,290.97L280.31,288.96Z" style="fill:rgb(244,244,243);fill-rule:nonzero;"/>
                </g>
                <g transform="matrix(1.33333,0,0,1.33333,142.801,108.254)">
                    <path d="M274.87,294.79C274.85,296.023 274.12,297.113 272.68,298.06L241.28,297.49C241.133,297.483 241.06,297.407 241.06,297.26L241.06,297.25C241.053,297.103 241.123,297.027 241.27,297.02L274.87,294.79Z" style="fill:rgb(244,244,243);fill-rule:nonzero;"/>
                </g>
                <g transform="matrix(1.33333,0,0,1.33333,142.801,108.254)">
                    <path d="M268.56,300.93C268.587,301.67 267.963,302.61 266.69,303.75L238.94,303.2C238.874,303.2 238.82,303.146 238.82,303.08C238.82,303.014 238.874,302.96 238.94,302.96L268.56,300.93Z" style="fill:rgb(244,244,243);fill-rule:nonzero;"/>
                </g>
                <g transform="matrix(1.33333,0,0,1.33333,142.801,108.254)">
                    <path d="M262.95,306.77L259.83,309.56L236.65,309.03C236.648,309.03 236.647,309.03 236.645,309.03C236.59,309.03 236.545,308.985 236.545,308.93C236.545,308.877 236.587,308.833 236.64,308.83L262.95,306.77Z" style="fill:rgb(244,244,243);fill-rule:nonzero;"/>
                </g>
                <g transform="matrix(1.33333,0,0,1.33333,142.801,108.254)">
                    <path d="M255.38,312.54C254.867,313.353 254.043,314.123 252.91,314.85L228.4,314.14C228.38,314.133 228.37,314.14 228.37,314.16L228.37,314.17C228.37,314.183 228.377,314.19 228.39,314.19L255.38,312.54Z" style="fill:rgb(244,244,243);fill-rule:nonzero;"/>
                </g>
                <g transform="matrix(1.33333,0,0,1.33333,142.801,108.254)">
                    <path d="M229.27,319.3C234.55,319.26 239.83,318.33 245.01,318.32C246.363,318.32 246.437,318.627 245.23,319.24L242.86,320.46C242.567,320.607 242.257,320.667 241.93,320.64L229.29,319.62C229.183,319.613 229.133,319.55 229.14,319.43C229.147,319.343 229.19,319.3 229.27,319.3Z" style="fill:rgb(244,244,243);fill-rule:nonzero;"/>
                </g>
            </g>
            <g transform="matrix(1,0,0,1,33,14)">
                <g transform="matrix(1.33333,0,0,1.33333,142.801,108.254)">
                    <path d="M201.476,256.181C201.47,259.502 198.737,262.231 195.416,262.231C195.413,262.231 195.409,262.231 195.406,262.231L194.526,262.229C191.205,262.223 188.476,259.49 188.476,256.169C188.476,256.166 188.476,256.162 188.476,256.159L188.504,240.319C188.51,236.998 191.243,234.269 194.564,234.269C194.567,234.269 194.571,234.269 194.574,234.269L195.454,234.271C198.775,234.277 201.504,237.01 201.504,240.331C201.504,240.334 201.504,240.338 201.504,240.341L201.476,256.181ZM197.114,240.284C197.114,240.282 197.114,240.281 197.114,240.28C197.114,239.195 196.222,238.302 195.137,238.3L194.997,238.3C193.911,238.298 193.016,239.19 193.014,240.276L192.986,256.076C192.986,256.078 192.986,256.079 192.986,256.08C192.986,257.165 193.878,258.058 194.963,258.06L195.103,258.06C196.189,258.062 197.084,257.17 197.086,256.084L197.114,240.284Z" style="fill:rgb(244,244,243);fill-rule:nonzero;"/>
                </g>
                <g transform="matrix(1.33333,0,0,1.33333,142.801,108.254)">
                    <path d="M213.04,256.74C212.995,256.834 212.972,256.936 212.972,257.04C212.972,257.419 213.281,257.733 213.66,257.74L220.86,257.86C221.152,257.865 221.39,258.108 221.39,258.4L221.37,261.51C221.37,261.923 221.16,262.123 220.74,262.11L209.8,261.75C209.54,261.743 209.38,261.613 209.32,261.36C208.327,257.107 209.07,253.76 211.55,251.32C215.34,247.58 217.68,244.88 216.85,239.51C216.727,238.735 215.997,238.193 215.22,238.3L214.77,238.36C213.772,238.491 213.021,239.359 213.03,240.37L213.06,242.96C213.067,243.487 212.81,243.753 212.29,243.76L209.78,243.78C209.287,243.78 209.02,243.533 208.98,243.04C208.58,237.97 210.21,233.06 216.48,234.35C221.04,235.29 222.31,239.34 221.43,243.51C220.18,249.41 215.43,251.73 213.04,256.74Z" style="fill:rgb(244,244,243);fill-rule:nonzero;"/>
                </g>
                <g transform="matrix(1.33333,0,0,1.33333,142.801,108.254)">
                    <path d="M174.5,258.91L180.8,258.4C181.08,258.373 181.223,258.503 181.23,258.79L181.24,261.96C181.24,262.26 181.09,262.417 180.79,262.43L169.55,263.04C169.317,263.047 169.177,262.933 169.13,262.7C168.423,259.033 168.94,256.127 170.68,253.98C174.37,249.41 178.17,245.84 177.2,240.62C177.053,239.813 176.57,239.387 175.75,239.34C172.43,239.16 173.11,242.61 173.21,244.72C173.211,244.727 173.211,244.733 173.211,244.74C173.211,244.872 173.102,244.98 172.971,244.98C172.971,244.98 172.97,244.98 172.97,244.98L169.25,245.07C169.107,245.071 168.985,244.962 168.97,244.82C168.31,240.45 169.65,236.08 174.73,235.4C184,234.17 182.49,244.76 179.06,249.37C177.4,251.61 175.517,254.127 173.41,256.92C173.244,257.136 173.154,257.402 173.154,257.675C173.154,258.355 173.714,258.915 174.394,258.915C174.429,258.915 174.465,258.913 174.5,258.91Z" style="fill:rgb(244,244,243);fill-rule:nonzero;"/>
                </g>
                <g transform="matrix(1.33333,0,0,1.33333,142.801,108.254)">
                    <path d="M239.22,249.21C242.65,252.31 242.39,261.74 237.53,262.81C230.74,264.3 228.18,260.06 228.58,253.84C228.593,253.613 228.713,253.507 228.94,253.52L232.45,253.77C232.563,253.783 232.62,253.843 232.62,253.95L232.72,257.61C232.727,257.937 232.857,258.2 233.11,258.4C234.183,259.233 235.223,259.32 236.23,258.66C236.537,258.453 236.703,258.17 236.73,257.81C236.95,254.83 237.87,250.38 233.16,250.48C232.847,250.487 232.69,250.337 232.69,250.03L232.7,247.05C232.7,246.774 232.924,246.545 233.2,246.54L235.86,246.47C236.181,246.459 236.458,246.228 236.53,245.91C236.937,244.09 236.943,242.263 236.55,240.43C236.463,240.023 236.23,239.74 235.85,239.58C235.01,239.233 234.167,239.257 233.32,239.65C232.963,239.816 232.728,240.164 232.71,240.55L232.6,242.83C232.58,243.27 232.353,243.47 231.92,243.43L229.24,243.19C228.733,243.143 228.483,242.867 228.49,242.36C228.5,237.32 230.22,234.96 235.47,235.36C241.98,235.85 243.02,244.43 239.2,248.48C238.953,248.733 238.96,248.977 239.22,249.21Z" style="fill:rgb(244,244,243);fill-rule:nonzero;"/>
                </g>
            </g>
            <g transform="matrix(1.33333,0,0,1.33333,175.801,122.254)">
                <circle cx="205.19" cy="279.85" r="2.25" style="fill:rgb(174,132,0);"/>
            </g>
            <g transform="matrix(1.33333,0,0,1.33333,175.801,122.254)">
                <path d="M205.68,287.12C207.03,283.58 208.21,278.89 213.43,280.68C213.723,280.78 213.9,280.983 213.96,281.29C214.073,281.943 213.843,282.3 213.27,282.36C212.29,282.453 211.5,282.523 210.9,282.57C210.574,282.594 210.285,282.798 210.15,283.1C208.87,286.04 207.34,288.6 207.05,291.81C206.777,294.83 206.683,297.857 206.77,300.89C206.781,301.178 207.021,301.409 207.31,301.409C207.357,301.409 207.404,301.402 207.45,301.39C207.95,301.257 208.25,301.233 208.35,301.32C209.583,302.367 209.39,302.937 207.77,303.03C206.257,303.11 204.583,303.113 202.75,303.04C202.183,303.013 201.853,302.763 201.76,302.29C201.689,301.917 201.921,301.552 202.28,301.47L203.29,301.24C203.597,301.173 203.773,300.983 203.82,300.67C204.773,294.27 203.577,288.37 200.23,282.97C200.057,282.683 199.8,282.53 199.46,282.51C198.887,282.477 198.327,282.453 197.78,282.44C197.307,282.42 196.993,282.297 196.84,282.07C196.707,281.877 196.67,281.627 196.73,281.32C196.783,281.04 196.947,280.86 197.22,280.78C202.91,279.02 203.27,283.57 205.01,287.15C205.257,287.65 205.48,287.64 205.68,287.12Z" style="fill:rgb(174,132,0);fill-rule:nonzero;"/>
            </g>
            <g transform="matrix(1.33333,0,0,1.33333,175.801,122.254)">
                <path d="M195.5,300.89C196.72,301.017 197.623,300.527 198.21,299.42C200.13,295.84 200.76,288.7 196.38,286.3C196.251,286.23 196.106,286.194 195.959,286.194C195.487,286.194 195.093,286.569 195.07,287.04L195.02,288.2C194.973,289.273 194.563,289.44 193.79,288.7C193.023,287.973 192.89,286.907 193.39,285.5C193.703,284.627 194.323,284.21 195.25,284.25C202.12,284.56 203.47,291.13 202.52,296.77C201.813,300.943 199.283,303.027 194.93,303.02C194.026,303.02 193.243,302.364 193.08,301.47C192.867,300.31 193.07,299.237 193.69,298.25C193.785,298.098 193.952,298.006 194.131,298.006C194.349,298.006 194.546,298.144 194.62,298.35C194.847,298.977 194.96,299.62 194.96,300.28C194.96,300.647 195.14,300.85 195.5,300.89Z" style="fill:rgb(174,132,0);fill-rule:nonzero;"/>
            </g>
            <g transform="matrix(1.33333,0,0,1.33333,175.801,122.254)">
                <path d="M214.84,286.29C209.71,287.32 210.11,298.28 213.79,300.69C214.51,301.157 215.103,301.12 215.57,300.58C215.77,300.353 215.897,300.093 215.95,299.8L216.19,298.56C216.27,298.127 216.48,298.047 216.82,298.32C219.07,300.16 217.92,303.26 214.98,303.1C211.553,302.907 209.363,301.163 208.41,297.87C206.8,292.33 208.42,283.73 215.94,284.33C216.953,284.408 217.743,285.269 217.74,286.29C217.74,287.277 217.387,288.127 216.68,288.84C216.586,288.939 216.455,288.994 216.319,288.994C216.058,288.994 215.839,288.79 215.82,288.53L215.67,286.9C215.623,286.393 215.347,286.19 214.84,286.29Z" style="fill:rgb(174,132,0);fill-rule:nonzero;"/>
            </g>
            <g transform="matrix(1.33333,0,0,1.33333,175.801,122.254)">
                <circle cx="194.21" cy="293.57" r="2.27" style="fill:rgb(174,132,0);"/>
            </g>
            <g transform="matrix(0.0139624,1.33326,-1.33326,0.0139624,464.214,513.681)">
                <ellipse cx="0" cy="0" rx="2.36" ry="2.14" style="fill:rgb(174,132,0);"/>
            </g>
            <g transform="matrix(1.33333,0,0,1.33333,175.801,122.254)">
                <path d="M218.98,304.67L219.35,301.58C219.436,300.905 219.982,300.375 220.66,300.31L221.08,300.26C221.107,300.258 221.133,300.256 221.16,300.256C221.659,300.256 222.07,300.667 222.07,301.166C222.07,301.171 222.07,301.175 222.07,301.18C222.037,302.293 221.993,303.667 221.94,305.3C221.88,306.94 220.9,307.76 219,307.76C206.947,307.733 197.82,307.683 191.62,307.61C190.807,307.597 189.83,307.42 188.69,307.08C188.33,306.973 188.143,306.73 188.13,306.35L187.91,301.25C187.863,300.25 188.313,299.92 189.26,300.26L189.96,300.52C190.607,300.753 190.883,301.21 190.79,301.89C190.663,302.797 190.73,303.683 190.99,304.55C191.092,304.893 191.406,305.13 191.76,305.13L218.46,305.13C218.721,305.132 218.945,304.933 218.98,304.67Z" style="fill:rgb(174,132,0);fill-rule:nonzero;"/>
            </g>
        </g>
    </g>
</svg>
