<?xml version="1.0" encoding="UTF-8" standalone="no"?>
<!DOCTYPE svg PUBLIC "-//W3C//DTD SVG 1.1//EN" "http://www.w3.org/Graphics/SVG/1.1/DTD/svg11.dtd">
<svg width="100%" height="100%" viewBox="0 0 3104 3105" version="1.1" xmlns="http://www.w3.org/2000/svg" xmlns:xlink="http://www.w3.org/1999/xlink" xml:space="preserve" xmlns:serif="http://www.serif.com/" style="fill-rule:evenodd;clip-rule:evenodd;stroke-linejoin:round;stroke-miterlimit:2;">
    <g transform="matrix(1,0,0,1,-7739,-10595)">
        <g transform="matrix(1,0,0,1,3059,680)">
            <g transform="matrix(1,0,0,1,-3883.81,-829.015)">
                <path d="M10115.8,10744C10972.4,10744 11667.8,11439.7 11667.8,12296.5C11667.8,13153.4 10972.4,13849 10115.8,13849C9259.24,13849 8563.81,13153.4 8563.81,12296.5C8563.81,11439.7 9259.24,10744 10115.8,10744ZM10245.2,11906.6L10245.2,12104C10245.2,12161.7 10213.4,12214.7 10162.5,12241.9C10111.5,12269 10049.8,12265.9 10001.9,12233.7L9425.86,11846.7C9382.64,11817.7 9356.72,11769 9356.75,11716.9C9356.78,11664.8 9382.76,11616.2 9426.02,11587.2L10002,11201.2C10049.9,11169.1 10111.7,11166 10162.6,11193.1C10213.5,11220.3 10245.2,11273.3 10245.2,11331L10245.2,11589C10315.7,11599.8 10384.9,11618.8 10451.2,11644.6C10511.2,11668 10569.8,11696 10624.1,11730.8C10748.6,11810.8 10851.3,11920.7 10924.3,12049.3C10987.6,12160.9 11029,12289.3 11039.4,12417.4C11049.3,12539.8 11035.6,12662.5 10997.1,12779.2C10959.5,12893.4 10899.8,13000.5 10822.7,13092.7C10765,13161.6 10697.4,13222.3 10621.6,13270.7C10334.1,13454.5 9952.54,13468.8 9654.22,13301.3C9522.38,13227.4 9413,13119.2 9331.45,12992.3C9266.31,12890.9 9219.3,12777.4 9198.48,12658.5C9193.26,12642.4 9189.03,12625.4 9189.14,12608.3C9189.53,12551.6 9230.59,12498.1 9278.23,12471C9300.99,12458.1 9328.93,12448.7 9355.48,12453.9C9376.86,12458.1 9390.41,12462.3 9409.26,12473.4C9459.02,12502.6 9492.4,12556.4 9507.48,12611C9525.31,12706.5 9566.48,12797.3 9625.96,12874C9682.71,12947.2 9757.25,13006.5 9840.8,13046.4C9940.17,13093.8 10052.1,13115.4 10162,13106.7C10342.6,13092.2 10515.7,12994.9 10620.5,12846.9C10683.9,12757.3 10721.3,12649.8 10728.1,12540.3C10741.3,12327.5 10637.2,12108.3 10454.7,11994.9C10389.9,11954.6 10319.2,11923.8 10245.2,11906.6Z" style="fill:white;"/>
            </g>
        </g>
    </g>
</svg>
