<?xml version="1.0" encoding="UTF-8" standalone="no"?>
<!DOCTYPE svg PUBLIC "-//W3C//DTD SVG 1.1//EN" "http://www.w3.org/Graphics/SVG/1.1/DTD/svg11.dtd">
<svg width="100%" height="100%" viewBox="0 0 3104 3105" version="1.1" xmlns="http://www.w3.org/2000/svg" xmlns:xlink="http://www.w3.org/1999/xlink" xml:space="preserve" xmlns:serif="http://www.serif.com/" style="fill-rule:evenodd;clip-rule:evenodd;stroke-linejoin:round;stroke-miterlimit:2;">
    <g transform="matrix(1,0,0,1,-11074,-11634)">
        <g transform="matrix(1,0,0,1,3059,680)">
            <g transform="matrix(1,0,0,1,3665.31,7993.98)">
                <path d="M5901.69,2960.02C6758.26,2960.02 7453.69,3655.67 7453.69,4512.52C7453.69,5369.36 6758.26,6065.02 5901.69,6065.02C5045.12,6065.02 4349.69,5369.36 4349.69,4512.52C4349.69,3655.67 5045.12,2960.02 5901.69,2960.02ZM6031.13,4122.63L6031.13,4320C6031.13,4377.73 5999.3,4430.75 5948.36,4457.9C5897.42,4485.04 5835.66,4481.89 5787.74,4449.7L5211.74,4062.7C5168.52,4033.65 5142.6,3984.98 5142.63,3932.91C5142.66,3880.83 5168.64,3832.19 5211.9,3803.2L5787.9,3417.2C5835.82,3385.09 5897.55,3381.99 5948.44,3409.15C5999.34,3436.31 6031.13,3489.31 6031.13,3547L6031.13,3804.97C6101.55,3815.77 6170.75,3834.83 6237.04,3860.62C6297.08,3883.98 6355.69,3911.97 6409.96,3946.84C6534.48,4026.85 6637.17,4136.7 6710.16,4265.35C6773.44,4376.9 6814.86,4505.35 6825.24,4633.4C6835.16,4755.83 6821.48,4878.47 6783.01,4995.21C6745.39,5109.41 6685.71,5216.46 6608.55,5308.66C6550.88,5377.57 6483.23,5438.27 6407.47,5486.71C6119.95,5670.54 5738.42,5684.76 5440.1,5517.35C5308.26,5443.36 5198.88,5335.17 5117.33,5208.28C5052.19,5106.9 5005.18,4993.44 4984.36,4874.52C4979.14,4858.43 4974.91,4841.39 4975.03,4824.34C4975.41,4767.56 5016.48,4714.1 5064.11,4687.02C5086.87,4674.08 5114.81,4664.66 5141.36,4669.9C5162.74,4674.12 5176.29,4678.35 5195.15,4689.4C5244.9,4718.58 5278.28,4772.43 5293.36,4827C5311.19,4922.47 5352.36,5013.27 5411.84,5089.99C5468.59,5163.19 5543.13,5222.54 5626.68,5262.39C5726.05,5309.79 5838,5331.42 5947.87,5322.66C6128.44,5308.25 6301.6,5210.93 6406.33,5062.89C6469.75,4973.25 6507.23,4865.82 6514.01,4756.26C6527.18,4543.5 6423.11,4324.34 6240.59,4210.85C6175.79,4170.57 6105.09,4139.81 6031.13,4122.63ZM5572.49,4947.24L6156.49,4941.24C6242.72,4940.36 6312.01,4869.63 6311.12,4783.4C6310.24,4697.16 6239.51,4627.87 6153.28,4628.76L5569.28,4634.76C5483.04,4635.65 5413.75,4706.37 5414.64,4792.61C5415.53,4878.84 5486.25,4948.13 5572.49,4947.24Z" style="fill:white;"/>
            </g>
        </g>
    </g>
</svg>
