<?xml version="1.0" encoding="UTF-8" standalone="no"?>
<!DOCTYPE svg PUBLIC "-//W3C//DTD SVG 1.1//EN" "http://www.w3.org/Graphics/SVG/1.1/DTD/svg11.dtd">
<svg width="100%" height="100%" viewBox="0 0 12153 3496" version="1.1" xmlns="http://www.w3.org/2000/svg" xmlns:xlink="http://www.w3.org/1999/xlink" xml:space="preserve" xmlns:serif="http://www.serif.com/" style="fill-rule:evenodd;clip-rule:evenodd;stroke-linejoin:round;stroke-miterlimit:2;">
    <g transform="matrix(1,0,0,1,-2755.11,-18789)">
        <g transform="matrix(4.61334,0,0,3.97834,24372.3,5163.89)">
            <g transform="matrix(12.1153,0,0,14.049,-122818,-145586)">
                <text x="9808.6px" y="10656.1px" style="font-family:'Futura-Bold', 'Futura', sans-serif;font-weight:700;font-size:50px;fill:rgb(231,227,216);">UR<tspan x="9884.25px 9916.6px " y="10656.1px 10656.1px ">en</tspan>t</text>
            </g>
        </g>
        <g transform="matrix(4.61334,0,0,3.97834,24372.3,5163.89)">
            <g transform="matrix(0.357255,0,0,0.240591,-3294.28,2977.6)">
                <g transform="matrix(-0.606745,1.27947e-16,-7.43048e-17,-1.04477,-799.763,8664.89)">
                    <path d="M2415.4,4542.28C2415.4,4542.28 2423.4,4164.86 2425.76,4053.72C2425.76,4053.72 3698.04,3153 3698.04,3153C3698.04,3153 4972.58,4053.29 4972.58,4053.29C4972.58,4165.5 4972.58,4541 4972.58,4541C4972.58,4574.35 4999.65,4601.42 5033,4601.42C5066.35,4601.42 5093.42,4574.35 5093.42,4541L5093.42,4022C5093.42,4002.38 5083.89,3983.97 5067.86,3972.65L3732.86,3029.65C3711.94,3014.88 3683.99,3014.89 3663.09,3029.69L2331.09,3972.69C2315.46,3983.76 2306,4001.57 2305.6,4020.72L2294.6,4539.72C2293.89,4573.06 2320.38,4600.7 2353.72,4601.4C2387.06,4602.11 2414.7,4575.62 2415.4,4542.28Z" style="fill:rgb(165,132,83);"/>
                </g>
                <g transform="matrix(0.606745,0,0,1.04477,-5283,-1298)">
                    <path d="M2865.42,3592.45L2865.42,3269C2865.42,3235.66 2838.35,3208.58 2805,3208.58C2771.66,3208.58 2744.58,3235.66 2744.58,3269L2744.58,3678L2324.09,3975.69C2308.46,3986.76 2299,4004.57 2298.6,4023.72L2287.6,4542.72C2286.89,4576.06 2313.38,4603.7 2346.72,4604.4C2380.06,4605.11 2407.7,4578.62 2408.4,4545.28C2408.4,4545.28 2416.4,4167.86 2418.76,4056.72C2418.76,4056.72 3483.39,3303 3691.04,3156C3691.04,3156 4783.57,3927.73 4965.58,4056.29C4965.58,4056.29 4965.58,4544 4965.58,4544C4965.58,4577.35 4992.65,4604.42 5026,4604.42C5059.35,4604.42 5086.42,4577.35 5086.42,4544L5086.42,4025C5086.42,4005.38 5076.89,3986.97 5060.86,3975.65L3725.86,3032.65C3704.94,3017.88 3676.99,3017.89 3656.09,3032.69L2865.42,3592.45Z" style="fill:rgb(165,132,83);"/>
                </g>
                <g transform="matrix(0.606745,0,0,1.04477,-5287.85,-1338.75)">
                    <path d="M3988,5287.42C4021.37,5287.42 4048.42,5260.37 4048.42,5227L4048.42,4390C4048.42,4356.63 4021.37,4329.58 3988,4329.58L3410,4329.58C3376.63,4329.58 3349.58,4356.63 3349.58,4390L3349.58,5227C3349.58,5260.37 3376.63,5287.42 3410,5287.42L3988,5287.42ZM3927.58,5166.58L3470.42,5166.58C3470.42,5166.58 3470.42,4633 3470.42,4450.42C3470.42,4450.42 3927.58,4450.42 3927.58,4450.42L3927.58,5166.58Z" style="fill:rgb(165,132,83);"/>
                </g>
            </g>
        </g>
    </g>
</svg>
