<?xml version="1.0" encoding="UTF-8" standalone="no"?>
<!DOCTYPE svg PUBLIC "-//W3C//DTD SVG 1.1//EN" "http://www.w3.org/Graphics/SVG/1.1/DTD/svg11.dtd">
<svg width="100%" height="100%" viewBox="0 0 159 133" version="1.1" xmlns="http://www.w3.org/2000/svg" xmlns:xlink="http://www.w3.org/1999/xlink" xml:space="preserve" xmlns:serif="http://www.serif.com/" style="fill-rule:evenodd;clip-rule:evenodd;stroke-linejoin:round;stroke-miterlimit:2;">
    <g transform="matrix(1,0,0,1,-33.142,-18.8113)">
        <g transform="matrix(1,0,0,1,3.46284,-40.1887)">
            <path d="M151.96,79.79L67.2,79.7C66.833,79.7 66.503,79.593 66.21,79.38C55.03,70.96 43.087,64.35 30.38,59.55C29.413,59.183 29.447,59 30.48,59L187.5,59C187.528,59.001 187.555,59.005 187.582,59.012C187.757,59.06 187.862,59.238 187.816,59.408C187.808,59.437 187.796,59.464 187.78,59.49L110.89,190.76C110.523,191.387 110.38,191.337 110.46,190.61C111.93,177.76 111.99,164.64 110.11,152.06C110.039,151.562 110.138,151.054 110.39,150.62L152.19,80.2C152.216,80.158 152.229,80.109 152.229,80.06C152.229,79.912 152.108,79.79 151.96,79.79Z" style="fill:rgb(253,79,0);fill-rule:nonzero;"/>
        </g>
        <g transform="matrix(1,0,0,1,3.46284,-40.1887)">
            <path d="M107.23,138.56C101.73,119.12 91.21,101.84 76.49,88.12C76.097,87.747 76.17,87.56 76.71,87.56L138.65,87.47C138.651,87.47 138.652,87.47 138.653,87.47C138.834,87.47 138.983,87.619 138.983,87.8C138.983,87.864 138.965,87.926 138.93,87.98L107.7,138.63C107.652,138.705 107.569,138.751 107.481,138.751C107.364,138.751 107.261,138.672 107.23,138.56Z" style="fill:rgb(253,79,0);fill-rule:nonzero;"/>
        </g>
    </g>
</svg>
